<?xml version="1.0" encoding="UTF-8"?><svg xmlns="http://www.w3.org/2000/svg" xmlns:xlink="http://www.w3.org/1999/xlink" version="1.1" id="Layer_1" x="0px" y="0px" viewBox="0 0 101 101" xml:space="preserve"><path d="M36.4 48.5c-.9-.9-2.5-.9-3.4 0s-.9 2.5 0 3.4L44.1 63c.5.5 1.1.7 1.7.7h.1c.7 0 1.3-.3 1.7-.9l27.8-33.3c.8-1 .7-2.5-.3-3.4-1-.8-2.5-.7-3.4.3L45.6 57.7l-9.2-9.2z"/><path d="M68.5 21.6c-13.5-8.4-30.8-6.5-42.1 4.8-13.3 13.3-13.3 34.9 0 48.2 6.6 6.6 15.4 10 24.1 10s17.5-3.3 24.1-10c11.3-11.3 13.3-28.7 4.8-42.2-.7-1.1-2.2-1.5-3.3-.8-1.1.7-1.5 2.2-.8 3.3 7.3 11.6 5.6 26.6-4.1 36.3-11.4 11.4-30 11.4-41.4 0-11.4-11.4-11.4-30 0-41.4 9.7-9.7 24.6-11.4 36.2-4.2 1.1.7 2.6.4 3.3-.8.7-1 .3-2.5-.8-3.2z"/><metadata><rdf:RDF xmlns:rdf="http://www.w3.org/1999/02/22-rdf-syntax-ns#" xmlns:rdfs="http://www.w3.org/2000/01/rdf-schema#" xmlns:dc="http://purl.org/dc/elements/1.1/"><rdf:Description about="https://iconscout.com/legal#licenses" dc:title="accept,verify,approve" dc:description="accept,verify,approve" dc:publisher="Iconscout" dc:date="2017-11-15" dc:format="image/svg+xml" dc:language="en"><dc:creator><rdf:Bag><rdf:li>Lucía González</rdf:li></rdf:Bag></dc:creator></rdf:Description></rdf:RDF></metadata></svg>