<?xml version="1.0" encoding="UTF-8"?><svg xmlns="http://www.w3.org/2000/svg" xmlns:xlink="http://www.w3.org/1999/xlink" version="1.1" id="Layer_1" x="0px" y="0px" viewBox="0 0 101 101" xml:space="preserve"><path d="M50.5 16.4c-18.8 0-34.1 15.3-34.1 34.1s15.3 34.1 34.1 34.1 34.1-15.3 34.1-34.1-15.3-34.1-34.1-34.1zm0 63.4c-16.1 0-29.3-13.1-29.3-29.3s13.1-29.3 29.3-29.3c16.1 0 29.3 13.1 29.3 29.3S66.6 79.8 50.5 79.8z"/><path d="M66.2 47.8H52.9V34.5c0-1.3-1.1-2.4-2.4-2.4-1.3 0-2.4 1.1-2.4 2.4v13.3H34.8c-1.3 0-2.4 1.1-2.4 2.4s1.1 2.4 2.4 2.4h13.3v13.3c0 1.3 1.1 2.4 2.4 2.4 1.3 0 2.4-1.1 2.4-2.4V52.6h13.3c1.3 0 2.4-1.1 2.4-2.4s-1.1-2.4-2.4-2.4z"/><metadata><rdf:RDF xmlns:rdf="http://www.w3.org/1999/02/22-rdf-syntax-ns#" xmlns:rdfs="http://www.w3.org/2000/01/rdf-schema#" xmlns:dc="http://purl.org/dc/elements/1.1/"><rdf:Description about="https://iconscout.com/legal#licenses" dc:title="add,insert" dc:description="add,insert" dc:publisher="Iconscout" dc:date="2017-11-15" dc:format="image/svg+xml" dc:language="en"><dc:creator><rdf:Bag><rdf:li>Lucía González</rdf:li></rdf:Bag></dc:creator></rdf:Description></rdf:RDF></metadata></svg>