<?xml version="1.0" encoding="UTF-8"?><svg xmlns="http://www.w3.org/2000/svg" xmlns:xlink="http://www.w3.org/1999/xlink" version="1.1" id="Layer_1" x="0px" y="0px" viewBox="0 0 101 101" xml:space="preserve"><path d="M44.8 47.2h-26c-1.3 0-2.4-1.1-2.4-2.4v-26c0-1.3 1.1-2.4 2.4-2.4h26c1.3 0 2.4 1.1 2.4 2.4v26c0 1.3-1.1 2.4-2.4 2.4zm-23.6-4.8h21.2V21.2H21.2v21.2z"/><path d="M82.2 47.2h-26c-1.3 0-2.4-1.1-2.4-2.4v-26c0-1.3 1.1-2.4 2.4-2.4h26c1.3 0 2.4 1.1 2.4 2.4v26c0 1.3-1.1 2.4-2.4 2.4zm-23.6-4.8h21.2V21.2H58.6v21.2z"/><path d="M44.8 84.6h-26c-1.3 0-2.4-1.1-2.4-2.4v-26c0-1.3 1.1-2.4 2.4-2.4h26c1.3 0 2.4 1.1 2.4 2.4v26c0 1.3-1.1 2.4-2.4 2.4zm-23.6-4.8h21.2V58.6H21.2v21.2z"/><path d="M82.2 84.6h-26c-1.3 0-2.4-1.1-2.4-2.4v-26c0-1.3 1.1-2.4 2.4-2.4h26c1.3 0 2.4 1.1 2.4 2.4v26c0 1.3-1.1 2.4-2.4 2.4zm-23.6-4.8h21.2V58.6H58.6v21.2z"/><metadata><rdf:RDF xmlns:rdf="http://www.w3.org/1999/02/22-rdf-syntax-ns#" xmlns:rdfs="http://www.w3.org/2000/01/rdf-schema#" xmlns:dc="http://purl.org/dc/elements/1.1/"><rdf:Description about="https://iconscout.com/legal#licenses" dc:title="app,application,menu" dc:description="app,application,menu" dc:publisher="Iconscout" dc:date="2017-11-15" dc:format="image/svg+xml" dc:language="en"><dc:creator><rdf:Bag><rdf:li>Lucía González</rdf:li></rdf:Bag></dc:creator></rdf:Description></rdf:RDF></metadata></svg>