<?xml version="1.0" encoding="UTF-8"?><svg xmlns="http://www.w3.org/2000/svg" xmlns:xlink="http://www.w3.org/1999/xlink" version="1.1" id="Layer_1" x="0px" y="0px" viewBox="0 0 101 101" xml:space="preserve"><path d="M82.2 79.6h-61V19c0-1.3-1.1-2.4-2.4-2.4s-2.4 1.1-2.4 2.4v63c0 1.3 1.1 2.4 2.4 2.4h63.4c1.3 0 2.4-1.1 2.4-2.4s-1.1-2.4-2.4-2.4z"/><path d="M82.2 16.6H29.9c-1.3 0-2.4 1.1-2.4 2.4v52c0 1.3 1.1 2.4 2.4 2.4h52.3c1.3 0 2.4-1.1 2.4-2.4V19c0-1.4-1.1-2.4-2.4-2.4zm-2.4 52H32.3V21.4h47.5v47.2z"/><metadata><rdf:RDF xmlns:rdf="http://www.w3.org/1999/02/22-rdf-syntax-ns#" xmlns:rdfs="http://www.w3.org/2000/01/rdf-schema#" xmlns:dc="http://purl.org/dc/elements/1.1/"><rdf:Description about="https://iconscout.com/legal#licenses" dc:title="arrange,align" dc:description="arrange,align" dc:publisher="Iconscout" dc:date="2017-11-15" dc:format="image/svg+xml" dc:language="en"><dc:creator><rdf:Bag><rdf:li>Lucía González</rdf:li></rdf:Bag></dc:creator></rdf:Description></rdf:RDF></metadata></svg>