<?xml version="1.0" encoding="UTF-8"?><svg xmlns="http://www.w3.org/2000/svg" xmlns:xlink="http://www.w3.org/1999/xlink" version="1.1" id="Layer_1" x="0px" y="0px" viewBox="0 0 101 101" xml:space="preserve"><path d="M69.4 57l13.3-4.2c.9-.3 1.6-1.1 1.7-2.1.1-1-.4-1.9-1.3-2.3L19.7 16.7c-.9-.5-2-.3-2.8.4-.7.7-.9 1.8-.5 2.8L47 83.3c.4.8 1.2 1.4 2.2 1.4h.2c1-.1 1.8-.7 2.1-1.6l4.9-14.6 15.4 15.4c.9.9 2.5.9 3.4 0L84 75c.9-.9.9-2.5 0-3.4L69.4 57zm4.2 21.7L57.1 62.2c-.5-.5-1.1-.7-1.7-.7-.2 0-.4 0-.6.1-.8.2-1.5.8-1.7 1.6l-4.2 12.7-25-51.7L75.7 50l-11.4 3.7c-.8.3-1.4.9-1.6 1.7-.2.8 0 1.7.6 2.3L79 73.4l-5.4 5.3z"/><metadata><rdf:RDF xmlns:rdf="http://www.w3.org/1999/02/22-rdf-syntax-ns#" xmlns:rdfs="http://www.w3.org/2000/01/rdf-schema#" xmlns:dc="http://purl.org/dc/elements/1.1/"><rdf:Description about="https://iconscout.com/legal#licenses" dc:title="arrow,mouse,pointer" dc:description="arrow,mouse,pointer" dc:publisher="Iconscout" dc:date="2017-11-15" dc:format="image/svg+xml" dc:language="en"><dc:creator><rdf:Bag><rdf:li>Lucía González</rdf:li></rdf:Bag></dc:creator></rdf:Description></rdf:RDF></metadata></svg>