<?xml version="1.0" encoding="UTF-8"?><svg xmlns="http://www.w3.org/2000/svg" xmlns:xlink="http://www.w3.org/1999/xlink" version="1.1" id="Layer_1" x="0px" y="0px" viewBox="0 0 101 101" xml:space="preserve"><path d="M42.1 36c-1.3 0-2.4 1.1-2.4 2.4v24.4c0 1.3 1.1 2.4 2.4 2.4 1.3 0 2.4-1.1 2.4-2.4V38.4c0-1.3-1.1-2.4-2.4-2.4z"/><path d="M30.5 36c-1.3 0-2.4 1.1-2.4 2.4v24.4c0 1.3 1.1 2.4 2.4 2.4 1.3 0 2.4-1.1 2.4-2.4V38.4c0-1.3-1.1-2.4-2.4-2.4z"/><path d="M82.2 39.2H72.1V29.1c0-1.3-1.1-2.4-2.4-2.4H18.8c-1.3 0-2.4 1.1-2.4 2.4v42.7c0 1.3 1.1 2.4 2.4 2.4h50.9c1.3 0 2.4-1.1 2.4-2.4V61.7h10.1c1.3 0 2.4-1.1 2.4-2.4V41.6c0-1.3-1.1-2.4-2.4-2.4zM67.3 69.5H21.2v-38h46.1v38zm12.5-12.6h-7.7V44h7.7v12.9z"/><metadata><rdf:RDF xmlns:rdf="http://www.w3.org/1999/02/22-rdf-syntax-ns#" xmlns:rdfs="http://www.w3.org/2000/01/rdf-schema#" xmlns:dc="http://purl.org/dc/elements/1.1/"><rdf:Description about="https://iconscout.com/legal#licenses" dc:title="battery,half,indicator" dc:description="battery,half,indicator" dc:publisher="Iconscout" dc:date="2017-11-15" dc:format="image/svg+xml" dc:language="en"><dc:creator><rdf:Bag><rdf:li>Lucía González</rdf:li></rdf:Bag></dc:creator></rdf:Description></rdf:RDF></metadata></svg>