<?xml version="1.0" encoding="UTF-8"?><svg xmlns="http://www.w3.org/2000/svg" xmlns:xlink="http://www.w3.org/1999/xlink" version="1.1" id="Layer_1" x="0px" y="0px" viewBox="0 0 101 101" xml:space="preserve"><path d="M42.6 16.7c-10.1 0-18.2 8.2-18.2 18.2s8.2 18.2 18.2 18.2S60.8 45 60.8 35s-8.2-18.3-18.2-18.3zm0 31.7c-7.4 0-13.4-6-13.4-13.4s6-13.4 13.4-13.4S56 27.6 56 35s-6 13.4-13.4 13.4z"/><path d="M67.5 41.7c-5 0-9.1 4.1-9.1 9.1 0 3.6 2.1 6.7 5.2 8.2-2 5.1-5.8 9.3-10.7 11.8v-.3c0-1.3-1.1-2.4-2.4-2.4H34.7c-1.3 0-2.4 1.1-2.4 2.4v11.3c0 1.3 1.1 2.4 2.4 2.4h15.8c1.3 0 2.4-1.1 2.4-2.4v-5.7c7.3-3 12.9-8.9 15.5-16.3 4.6-.4 8.3-4.3 8.3-9.1 0-4.9-4.1-9-9.2-9zM37.1 79.5V73h11v6.5h-11zm30.4-24.4c-2.4 0-4.3-1.9-4.3-4.3s1.9-4.3 4.3-4.3 4.3 1.9 4.3 4.3-1.9 4.3-4.3 4.3z"/><metadata><rdf:RDF xmlns:rdf="http://www.w3.org/1999/02/22-rdf-syntax-ns#" xmlns:rdfs="http://www.w3.org/2000/01/rdf-schema#" xmlns:dc="http://purl.org/dc/elements/1.1/"><rdf:Description about="https://iconscout.com/legal#licenses" dc:title="bell,alarm" dc:description="bell,alarm" dc:publisher="Iconscout" dc:date="2017-11-15" dc:format="image/svg+xml" dc:language="en"><dc:creator><rdf:Bag><rdf:li>Lucía González</rdf:li></rdf:Bag></dc:creator></rdf:Description></rdf:RDF></metadata></svg>