<?xml version="1.0" encoding="UTF-8"?><svg xmlns="http://www.w3.org/2000/svg" xmlns:xlink="http://www.w3.org/1999/xlink" version="1.1" id="Layer_1" x="0px" y="0px" viewBox="0 0 101 101" xml:space="preserve"><path d="M83.3 64.2L55.9 50.5l27.4-13.7c.8-.4 1.3-1.2 1.3-2.1 0-.9-.5-1.7-1.3-2.1L51.6 16.7c-.7-.4-1.6-.3-2.3.1-.7.4-1.1 1.2-1.1 2v27.8L19.9 32.5c-1.2-.6-2.6-.1-3.2 1.1-.6 1.2-.1 2.6 1.1 3.2l27.4 13.7-27.5 13.7c-1.2.6-1.7 2-1.1 3.2.4.8 1.3 1.3 2.1 1.3.4 0 .7-.1 1.1-.3L48 54.3v27.8c0 .8.4 1.6 1.1 2 .4.2.8.4 1.3.4.4 0 .7-.1 1.1-.3l31.7-15.8c.8-.4 1.3-1.2 1.3-2.1.1-.9-.4-1.7-1.2-2.1zM52.9 22.7l23.9 12-23.9 12v-24zm0 55.6V54.4l23.9 12-23.9 11.9z"/><metadata><rdf:RDF xmlns:rdf="http://www.w3.org/1999/02/22-rdf-syntax-ns#" xmlns:rdfs="http://www.w3.org/2000/01/rdf-schema#" xmlns:dc="http://purl.org/dc/elements/1.1/"><rdf:Description about="https://iconscout.com/legal#licenses" dc:title="bluetooth,sign,logo" dc:description="bluetooth,sign,logo" dc:publisher="Iconscout" dc:date="2017-11-15" dc:format="image/svg+xml" dc:language="en"><dc:creator><rdf:Bag><rdf:li>Lucía González</rdf:li></rdf:Bag></dc:creator></rdf:Description></rdf:RDF></metadata></svg>