<?xml version="1.0" encoding="UTF-8"?><svg xmlns="http://www.w3.org/2000/svg" xmlns:xlink="http://www.w3.org/1999/xlink" version="1.1" id="Layer_1" x="0px" y="0px" viewBox="0 0 101 101" xml:space="preserve"><path d="M66.3 84.6c-.6 0-1.2-.2-1.7-.7L50.5 69.6 36.4 83.9c-.7.7-1.7.9-2.6.5-.9-.4-1.5-1.2-1.5-2.2V18.8c0-1.3 1.1-2.4 2.4-2.4h31.7c1.3 0 2.4 1.1 2.4 2.4v63.4c0 1-.6 1.8-1.5 2.2-.3.1-.7.2-1 .2zM50.5 63.8c.6 0 1.3.3 1.7.7l11.7 11.9V21.2H37.1v55.1l11.7-11.9c.4-.4 1.1-.6 1.7-.6z"/><metadata><rdf:RDF xmlns:rdf="http://www.w3.org/1999/02/22-rdf-syntax-ns#" xmlns:rdfs="http://www.w3.org/2000/01/rdf-schema#" xmlns:dc="http://purl.org/dc/elements/1.1/"><rdf:Description about="https://iconscout.com/legal#licenses" dc:title="bookmark,tag,label" dc:description="bookmark,tag,label" dc:publisher="Iconscout" dc:date="2017-11-15" dc:format="image/svg+xml" dc:language="en"><dc:creator><rdf:Bag><rdf:li>Lucía González</rdf:li></rdf:Bag></dc:creator></rdf:Description></rdf:RDF></metadata></svg>