<?xml version="1.0" encoding="UTF-8"?><svg xmlns="http://www.w3.org/2000/svg" xmlns:xlink="http://www.w3.org/1999/xlink" version="1.1" id="Layer_1" x="0px" y="0px" viewBox="0 0 101 101" xml:space="preserve"><path d="M82.2 31.6H63.8v-7.3c0-1.3-1.1-2.4-2.4-2.4H39.6c-1.3 0-2.4 1.1-2.4 2.4v7.3H18.8c-1.3 0-2.4 1.1-2.4 2.4v42.7c0 1.3 1.1 2.4 2.4 2.4h63.4c1.3 0 2.4-1.1 2.4-2.4V34c0-1.4-1.1-2.4-2.4-2.4zM42 26.7h17v4.9H42v-4.9zm-2.9 9.7c.2 0 .4.1.5.1s.4 0 .5-.1h20.7c.2 0 .4.1.5.1s.4 0 .5-.1h17.9V53h-16v-2.9c0-1.3-1.1-2.4-2.4-2.4S59 48.8 59 50.1V53H42v-2.9c0-1.3-1.1-2.4-2.4-2.4s-2.4 1.1-2.4 2.4V53h-16V36.4h17.9zM21.2 74.3V57.7h16v2.7c0 1.3 1.1 2.4 2.4 2.4s2.4-1.1 2.4-2.4v-2.7h17v2.7c0 1.3 1.1 2.4 2.4 2.4s2.4-1.1 2.4-2.4v-2.7h16v16.6H21.2z"/><metadata><rdf:RDF xmlns:rdf="http://www.w3.org/1999/02/22-rdf-syntax-ns#" xmlns:rdfs="http://www.w3.org/2000/01/rdf-schema#" xmlns:dc="http://purl.org/dc/elements/1.1/"><rdf:Description about="https://iconscout.com/legal#licenses" dc:title="briefcase,bag" dc:description="briefcase,bag" dc:publisher="Iconscout" dc:date="2017-11-15" dc:format="image/svg+xml" dc:language="en"><dc:creator><rdf:Bag><rdf:li>Lucía González</rdf:li></rdf:Bag></dc:creator></rdf:Description></rdf:RDF></metadata></svg>