<?xml version="1.0" encoding="UTF-8"?><svg xmlns="http://www.w3.org/2000/svg" xmlns:xlink="http://www.w3.org/1999/xlink" version="1.1" id="Layer_1" x="0px" y="0px" viewBox="0 0 101 101" xml:space="preserve"><path d="M50.5 84.2c1.3 0 2.4-1.1 2.4-2.4V61.3h21.4c1.3 0 2.4-1.1 2.4-2.4V19.3c0-1.3-1.1-2.4-2.4-2.4H26.7c-1.3 0-2.4 1.1-2.4 2.4V59c0 1.3 1.1 2.4 2.4 2.4h21.4v20.4c0 1.3 1.1 2.4 2.4 2.4zM36.2 21.7V30c0 1.3 1.1 2.4 2.4 2.4s2.4-1 2.4-2.4v-8.4h7.2v13.8c0 1.3 1.1 2.4 2.4 2.4 1.3 0 2.4-1.1 2.4-2.4V21.7h7V30c0 1.3 1.1 2.4 2.4 2.4 1.3 0 2.4-1.1 2.4-2.4v-8.4h7.1V48H29.1V21.7h7.1zm-7.1 31.1h42.8v3.7H29.1v-3.7z"/><metadata><rdf:RDF xmlns:rdf="http://www.w3.org/1999/02/22-rdf-syntax-ns#" xmlns:rdfs="http://www.w3.org/2000/01/rdf-schema#" xmlns:dc="http://purl.org/dc/elements/1.1/"><rdf:Description about="https://iconscout.com/legal#licenses" dc:title="brush,color" dc:description="brush,color" dc:publisher="Iconscout" dc:date="2017-11-15" dc:format="image/svg+xml" dc:language="en"><dc:creator><rdf:Bag><rdf:li>Lucía González</rdf:li></rdf:Bag></dc:creator></rdf:Description></rdf:RDF></metadata></svg>