<?xml version="1.0" encoding="UTF-8"?><svg xmlns="http://www.w3.org/2000/svg" xmlns:xlink="http://www.w3.org/1999/xlink" version="1.1" id="Layer_1" x="0px" y="0px" viewBox="0 0 101 101" xml:space="preserve"><path d="M69.4 28.3H18.6c-1.3 0-2.4 1.1-2.4 2.4v39.7c0 1.3 1.1 2.4 2.4 2.4h50.8c1.3 0 2.4-1.1 2.4-2.4V58.9l8.8 8.8c.5.5 1.1.7 1.7.7.3 0 .6-.1.9-.2.9-.4 1.5-1.2 1.5-2.2V35c0-1-.6-1.8-1.5-2.2-.9-.4-1.9-.2-2.6.5l-8.8 8.8V30.7c0-1.4-1-2.4-2.4-2.4zM67 67.9H21V33.1h46v34.8zm13-27.1v19.4l-8.1-8.1v-3.2l8.1-8.1z"/><metadata><rdf:RDF xmlns:rdf="http://www.w3.org/1999/02/22-rdf-syntax-ns#" xmlns:rdfs="http://www.w3.org/2000/01/rdf-schema#" xmlns:dc="http://purl.org/dc/elements/1.1/"><rdf:Description about="https://iconscout.com/legal#licenses" dc:title="camcorder,video,recorder" dc:description="camcorder,video,recorder" dc:publisher="Iconscout" dc:date="2017-11-15" dc:format="image/svg+xml" dc:language="en"><dc:creator><rdf:Bag><rdf:li>Lucía González</rdf:li></rdf:Bag></dc:creator></rdf:Description></rdf:RDF></metadata></svg>