<?xml version="1.0" encoding="UTF-8"?><svg xmlns="http://www.w3.org/2000/svg" xmlns:xlink="http://www.w3.org/1999/xlink" version="1.1" id="Layer_1" x="0px" y="0px" viewBox="0 0 101 101" xml:space="preserve"><path d="M38.6 51.9h-7.9c-1.3 0-2.4 1.1-2.4 2.4s1.1 2.4 2.4 2.4h7.9c1.3 0 2.4-1.1 2.4-2.4s-1.1-2.4-2.4-2.4z"/><path d="M82.2 26.7H18.9c-1.3 0-2.4 1.1-2.4 2.4v15c0 .2-.1.3-.1.5s0 .4.1.5v26.7c0 1.3 1.1 2.4 2.4 2.4h63.4c1.3 0 2.4-1.1 2.4-2.4V29.1c-.1-1.3-1.2-2.4-2.5-2.4zm-2.4 4.8v10.7H21.3V31.5h58.5zm-58.5 38V47.1h58.6v22.4H21.3z"/><metadata><rdf:RDF xmlns:rdf="http://www.w3.org/1999/02/22-rdf-syntax-ns#" xmlns:rdfs="http://www.w3.org/2000/01/rdf-schema#" xmlns:dc="http://purl.org/dc/elements/1.1/"><rdf:Description about="https://iconscout.com/legal#licenses" dc:title="cerditcard,debit,card" dc:description="cerditcard,debit,card" dc:publisher="Iconscout" dc:date="2017-11-15" dc:format="image/svg+xml" dc:language="en"><dc:creator><rdf:Bag><rdf:li>Lucía González</rdf:li></rdf:Bag></dc:creator></rdf:Description></rdf:RDF></metadata></svg>