<?xml version="1.0" encoding="UTF-8"?><svg xmlns="http://www.w3.org/2000/svg" xmlns:xlink="http://www.w3.org/1999/xlink" version="1.1" id="Layer_1" x="0px" y="0px" viewBox="0 0 101 101" xml:space="preserve"><path d="M33.2 41.9h34.7c1.3 0 2.4-1.1 2.4-2.4 0-1.3-1.1-2.4-2.4-2.4H33.2c-1.3 0-2.4 1.1-2.4 2.4 0 1.3 1 2.4 2.4 2.4z"/><path d="M33.2 53.6h34.7c1.3 0 2.4-1.1 2.4-2.4 0-1.3-1.1-2.4-2.4-2.4H33.2c-1.3 0-2.4 1.1-2.4 2.4 0 1.3 1 2.4 2.4 2.4z"/><path d="M82.2 21.6H18.8c-1.3 0-2.4 1.1-2.4 2.4v42.7c0 1.3 1.1 2.4 2.4 2.4h7.7V77c0 .9.5 1.7 1.3 2.2.3.2.7.2 1.1.2.5 0 1-.2 1.5-.5l12.9-9.8h38.9c1.3 0 2.4-1.1 2.4-2.4V24c0-1.3-1.1-2.4-2.4-2.4zm-2.4 42.7H42.5c-.5 0-1 .2-1.5.5l-9.7 7.4v-5.5c0-1.3-1.1-2.4-2.4-2.4h-7.7V26.4h58.6v37.9z"/><metadata><rdf:RDF xmlns:rdf="http://www.w3.org/1999/02/22-rdf-syntax-ns#" xmlns:rdfs="http://www.w3.org/2000/01/rdf-schema#" xmlns:dc="http://purl.org/dc/elements/1.1/"><rdf:Description about="https://iconscout.com/legal#licenses" dc:title="chatting,message,chat" dc:description="chatting,message,chat" dc:publisher="Iconscout" dc:date="2017-11-15" dc:format="image/svg+xml" dc:language="en"><dc:creator><rdf:Bag><rdf:li>Lucía González</rdf:li></rdf:Bag></dc:creator></rdf:Description></rdf:RDF></metadata></svg>