<?xml version="1.0" encoding="UTF-8"?><svg xmlns="http://www.w3.org/2000/svg" xmlns:xlink="http://www.w3.org/1999/xlink" version="1.1" id="Layer_1" x="0px" y="0px" viewBox="0 0 101 101" xml:space="preserve"><path d="M77.4 19.3h-9.5v-3.4c0-1.3-1.1-2.4-2.4-2.4H36.7c-1.3 0-2.4 1.1-2.4 2.4v3.4H23.6c-1.3 0-2.4 1.1-2.4 2.4v63.4c0 1.3 1.1 2.4 2.4 2.4h53.8c1.3 0 2.4-1.1 2.4-2.4V21.7c0-1.3-1.1-2.4-2.4-2.4zm-38.3-1h24v7.6h-24v-7.6zM75 82.7H26V24.1h8.2v4.2c0 1.3 1.1 2.4 2.4 2.4h28.8c1.3 0 2.4-1.1 2.4-2.4v-4.2H75v58.6z"/><path d="M68.4 55.2H33.7c-1.3 0-2.4 1.1-2.4 2.4 0 1.3 1.1 2.4 2.4 2.4h34.7c1.3 0 2.4-1.1 2.4-2.4 0-1.3-1.1-2.4-2.4-2.4z"/><path d="M51.1 66.8H33.7c-1.3 0-2.4 1.1-2.4 2.4 0 1.3 1.1 2.4 2.4 2.4H51c1.3 0 2.4-1.1 2.4-2.4.1-1.3-1-2.4-2.3-2.4z"/><path d="M31.3 45.9c0 1.3 1.1 2.4 2.4 2.4h34.7c1.3 0 2.4-1.1 2.4-2.4 0-1.3-1.1-2.4-2.4-2.4H33.7c-1.3 0-2.4 1.1-2.4 2.4z"/><metadata><rdf:RDF xmlns:rdf="http://www.w3.org/1999/02/22-rdf-syntax-ns#" xmlns:rdfs="http://www.w3.org/2000/01/rdf-schema#" xmlns:dc="http://purl.org/dc/elements/1.1/"><rdf:Description about="https://iconscout.com/legal#licenses" dc:title="clipboard,notes" dc:description="clipboard,notes" dc:publisher="Iconscout" dc:date="2017-11-15" dc:format="image/svg+xml" dc:language="en"><dc:creator><rdf:Bag><rdf:li>Lucía González</rdf:li></rdf:Bag></dc:creator></rdf:Description></rdf:RDF></metadata></svg>