<?xml version="1.0" encoding="UTF-8"?><svg xmlns="http://www.w3.org/2000/svg" xmlns:xlink="http://www.w3.org/1999/xlink" version="1.1" id="Layer_1" x="0px" y="0px" viewBox="0 0 101 101" xml:space="preserve"><path d="M60.6 16.4c-11.6 0-21.3 8.2-23.5 19.3-2-.8-4.2-1.2-6.4-1.1-8 .4-14.2 7.1-14.2 15.4 0 8 6.5 14.5 14.5 14.5 1.3 0 2.4-1.1 2.4-2.4s-1.1-2.4-2.4-2.4c-5.4 0-9.7-4.4-9.7-9.7 0-5.6 4.3-10.4 9.7-10.6 2.5-.1 4.8.6 6.7 2.1.7.6 1.7.7 2.5.3.8-.4 1.4-1.2 1.4-2.1.4-10.3 8.8-18.4 19.2-18.4 10.6 0 19.2 8.6 19.2 19.2v1.6c-.2 9.8-8.2 17.7-18 17.7-1.3 0-2.4 1.1-2.4 2.4s1.1 2.4 2.4 2.4c12.6 0 22.8-10.2 22.8-22.8v-.2-1c-.2-13.4-11-24.2-24.2-24.2z"/><path d="M49 56.9c-.9-.9-2.5-.9-3.4 0L30.1 72.4c-.9.9-.9 2.5 0 3.4.9.9 2.5.9 3.4 0l11.4-11.4v17.8c0 1.3 1.1 2.4 2.4 2.4 1.3 0 2.4-1.1 2.4-2.4V64.4l11.4 11.4c.5.5 1.1.7 1.7.7s1.2-.2 1.7-.7c.9-.9.9-2.5 0-3.4L49 56.9z"/><metadata><rdf:RDF xmlns:rdf="http://www.w3.org/1999/02/22-rdf-syntax-ns#" xmlns:rdfs="http://www.w3.org/2000/01/rdf-schema#" xmlns:dc="http://purl.org/dc/elements/1.1/"><rdf:Description about="https://iconscout.com/legal#licenses" dc:title="cloud,upload,data" dc:description="cloud,upload,data" dc:publisher="Iconscout" dc:date="2017-11-15" dc:format="image/svg+xml" dc:language="en"><dc:creator><rdf:Bag><rdf:li>Lucía González</rdf:li></rdf:Bag></dc:creator></rdf:Description></rdf:RDF></metadata></svg>