<?xml version="1.0" encoding="UTF-8"?><svg xmlns="http://www.w3.org/2000/svg" xmlns:xlink="http://www.w3.org/1999/xlink" version="1.1" id="Layer_1" x="0px" y="0px" viewBox="0 0 101 101" xml:space="preserve"><path d="M61.7 74.5H30.9c-8 0-14.5-6.5-14.5-14.5 0-8.3 6.3-15 14.2-15.4 2.2-.1 4.4.3 6.4 1.1 2.3-11 12-19.2 23.6-19.2 13.2 0 24 10.8 24 24v1.2c0 12.6-10.3 22.8-22.9 22.8zM31.4 49.4h-.5c-5.3.2-9.7 5-9.7 10.6 0 5.4 4.4 9.7 9.7 9.7h30.8c9.8 0 17.9-7.9 18-17.7v-.9-.7c0-10.6-8.6-19.2-19.2-19.2-10.3 0-18.8 8.1-19.2 18.4 0 .9-.6 1.7-1.4 2.1-.8.4-1.8.3-2.5-.3-1.6-1.3-3.8-2-6-2z"/><metadata><rdf:RDF xmlns:rdf="http://www.w3.org/1999/02/22-rdf-syntax-ns#" xmlns:rdfs="http://www.w3.org/2000/01/rdf-schema#" xmlns:dc="http://purl.org/dc/elements/1.1/"><rdf:Description about="https://iconscout.com/legal#licenses" dc:title="cloud" dc:description="cloud" dc:publisher="Iconscout" dc:date="2017-11-15" dc:format="image/svg+xml" dc:language="en"><dc:creator><rdf:Bag><rdf:li>Lucía González</rdf:li></rdf:Bag></dc:creator></rdf:Description></rdf:RDF></metadata></svg>