<?xml version="1.0" encoding="UTF-8"?><svg xmlns="http://www.w3.org/2000/svg" xmlns:xlink="http://www.w3.org/1999/xlink" version="1.1" id="Layer_1" x="0px" y="0px" viewBox="0 0 101 101" xml:space="preserve"><path d="M16.4 82.2c0 1.3 1.1 2.4 2.4 2.4 1.3 0 2.4-1.1 2.4-2.4V34.3c3.9-1 6.8-4.6 6.8-8.8 0-5-4.1-9.1-9.1-9.1s-9.1 4.1-9.1 9.1c0 4.2 2.8 7.7 6.6 8.8v47.9zm-1.9-56.7c0-2.4 1.9-4.3 4.3-4.3s4.3 1.9 4.3 4.3-1.9 4.3-4.3 4.3-4.3-1.9-4.3-4.3z"/><path d="M50.5 16.4c-1.3 0-2.4 1.1-2.4 2.4v24.8c-3.8 1.1-6.6 4.6-6.6 8.8s2.8 7.7 6.6 8.8v21c0 1.3 1.1 2.4 2.4 2.4 1.3 0 2.4-1.1 2.4-2.4v-21c3.9-1 6.8-4.6 6.8-8.8s-2.9-7.8-6.8-8.8V18.8c0-1.3-1.1-2.4-2.4-2.4zm4.4 36c0 2.4-1.9 4.3-4.3 4.3s-4.3-1.9-4.3-4.3 1.9-4.3 4.3-4.3c2.3 0 4.3 1.9 4.3 4.3z"/><path d="M84.5 66.7V18.8c0-1.3-1.1-2.4-2.4-2.4-1.3 0-2.4 1.1-2.4 2.4v47.9c-3.9 1.1-6.7 4.6-6.7 8.8 0 5 4.1 9.1 9.1 9.1s9.1-4.1 9.1-9.1c.1-4.2-2.8-7.8-6.7-8.8zm-2.4 13.1c-2.4 0-4.3-1.9-4.3-4.3s1.9-4.3 4.3-4.3 4.3 1.9 4.3 4.3c.1 2.3-1.9 4.3-4.3 4.3z"/><metadata><rdf:RDF xmlns:rdf="http://www.w3.org/1999/02/22-rdf-syntax-ns#" xmlns:rdfs="http://www.w3.org/2000/01/rdf-schema#" xmlns:dc="http://purl.org/dc/elements/1.1/"><rdf:Description about="https://iconscout.com/legal#licenses" dc:title="control,music,setting" dc:description="control,music,setting" dc:publisher="Iconscout" dc:date="2017-11-15" dc:format="image/svg+xml" dc:language="en"><dc:creator><rdf:Bag><rdf:li>Lucía González</rdf:li></rdf:Bag></dc:creator></rdf:Description></rdf:RDF></metadata></svg>