<?xml version="1.0" encoding="UTF-8"?><svg xmlns="http://www.w3.org/2000/svg" xmlns:xlink="http://www.w3.org/1999/xlink" version="1.1" id="Layer_1" x="0px" y="0px" viewBox="0 0 101 101" xml:space="preserve"><path d="M74.6 26.3c-.1-.1-.2-.1-.2-.2-6.1-6-14.6-9.7-23.8-9.7-9.3 0-17.7 3.7-23.8 9.8-.1.1-.1.1-.2.1 0 0-.1.1-.1.2-6.1 6.2-9.9 14.6-9.9 24 0 18.8 15.3 34.1 34.1 34.1s34.1-15.3 34.1-34.1c0-9.3-3.8-17.8-9.9-24-.2 0-.3-.1-.3-.2zM58.8 48.1c-.5-1.7-1.5-3.1-2.8-4.2L62.5 29c.5-1.2 0-2.6-1.2-3.2-1.2-.5-2.6 0-3.2 1.2l-6.5 14.9c-.4 0-.7-.1-1.1-.1-3.9 0-7.2 2.6-8.3 6.2H21.3c.5-6.3 3-12 6.9-16.6l4.5 4.5c.5.5 1.1.7 1.7.7s1.2-.2 1.7-.7c.9-.9.9-2.5 0-3.4L31.6 28c4.5-3.8 10.2-6.3 16.5-6.8v6.4c0 1.3 1.1 2.4 2.4 2.4s2.4-1.1 2.4-2.4v-6.4c6.2.5 11.9 3 16.5 6.8l-4.5 4.5c-.9.9-.9 2.5 0 3.4.5.5 1.1.7 1.7.7.6 0 1.2-.2 1.7-.7l4.5-4.5c3.9 4.5 6.4 10.3 6.9 16.6H58.8zm-4.5 2.4c0 2.1-1.7 3.8-3.8 3.8s-3.8-1.7-3.8-3.8 1.7-3.8 3.8-3.8 3.8 1.7 3.8 3.8zm-3.8 29.3c-15.3 0-27.9-11.9-29.2-26.9h20.9c1 3.6 4.4 6.2 8.3 6.2s7.3-2.6 8.3-6.2h20.9c-1.3 15-13.9 26.9-29.2 26.9z"/><metadata><rdf:RDF xmlns:rdf="http://www.w3.org/1999/02/22-rdf-syntax-ns#" xmlns:rdfs="http://www.w3.org/2000/01/rdf-schema#" xmlns:dc="http://purl.org/dc/elements/1.1/"><rdf:Description about="https://iconscout.com/legal#licenses" dc:title="dashboard,measurement" dc:description="dashboard,measurement" dc:publisher="Iconscout" dc:date="2017-11-15" dc:format="image/svg+xml" dc:language="en"><dc:creator><rdf:Bag><rdf:li>Lucía González</rdf:li></rdf:Bag></dc:creator></rdf:Description></rdf:RDF></metadata></svg>