<?xml version="1.0" encoding="UTF-8"?><svg xmlns="http://www.w3.org/2000/svg" xmlns:xlink="http://www.w3.org/1999/xlink" version="1.1" id="Layer_1" x="0px" y="0px" viewBox="0 0 101 101" xml:space="preserve"><path d="M48.8 74.2c.2.2.5.4.8.5.3.1.6.2.9.2s.6-.1.9-.2c.3-.1.6-.3.8-.5l31.7-31.7c.9-.9.9-2.5 0-3.4s-2.5-.9-3.4 0L52.9 66.7V20.6c0-1.3-1.1-2.4-2.4-2.4s-2.4 1.1-2.4 2.4v46.2L20.5 39.1c-.9-.9-2.5-.9-3.4 0s-.9 2.5 0 3.4l31.7 31.7z"/><path d="M18.8 82.8h63.4c1.3 0 2.4-1.1 2.4-2.4S83.5 78 82.2 78H18.8c-1.3 0-2.4 1.1-2.4 2.4s1.1 2.4 2.4 2.4z"/><metadata><rdf:RDF xmlns:rdf="http://www.w3.org/1999/02/22-rdf-syntax-ns#" xmlns:rdfs="http://www.w3.org/2000/01/rdf-schema#" xmlns:dc="http://purl.org/dc/elements/1.1/"><rdf:Description about="https://iconscout.com/legal#licenses" dc:title="download" dc:description="download" dc:publisher="Iconscout" dc:date="2017-11-15" dc:format="image/svg+xml" dc:language="en"><dc:creator><rdf:Bag><rdf:li>Lucía González</rdf:li></rdf:Bag></dc:creator></rdf:Description></rdf:RDF></metadata></svg>