<?xml version="1.0" encoding="UTF-8"?><svg xmlns="http://www.w3.org/2000/svg" xmlns:xlink="http://www.w3.org/1999/xlink" version="1.1" id="Layer_1" x="0px" y="0px" viewBox="0 0 101 101" xml:space="preserve"><path d="M82.2 79.2H18.8c-1.3 0-2.4 1.1-2.4 2.4s1.1 2.4 2.4 2.4h63.4c1.3 0 2.4-1.1 2.4-2.4s-1.1-2.4-2.4-2.4z"/><path d="M16.5 58.2l-.1 11.3c0 .6.2 1.3.7 1.7.5.4 1.1.7 1.7.7l11.3-.1c.6 0 1.2-.3 1.7-.7l38.8-38.8c.9-.9.9-2.5 0-3.4L59.4 17.7c-.9-.9-2.5-.9-3.4 0l-7.8 7.8-31 31c-.5.5-.7 1.1-.7 1.7zm49-27.6L61.1 35l-7.8-7.8 4.4-4.4 7.8 7.8zM21.3 59.2l28.6-28.6 7.8 7.8L29.1 67h-7.8v-7.8z"/><metadata><rdf:RDF xmlns:rdf="http://www.w3.org/1999/02/22-rdf-syntax-ns#" xmlns:rdfs="http://www.w3.org/2000/01/rdf-schema#" xmlns:dc="http://purl.org/dc/elements/1.1/"><rdf:Description about="https://iconscout.com/legal#licenses" dc:title="edit" dc:description="edit" dc:publisher="Iconscout" dc:date="2017-11-15" dc:format="image/svg+xml" dc:language="en"><dc:creator><rdf:Bag><rdf:li>Lucía González</rdf:li></rdf:Bag></dc:creator></rdf:Description></rdf:RDF></metadata></svg>