<?xml version="1.0" encoding="UTF-8"?><svg xmlns="http://www.w3.org/2000/svg" xmlns:xlink="http://www.w3.org/1999/xlink" version="1.1" id="Layer_1" x="0px" y="0px" viewBox="0 0 101 101" xml:space="preserve"><path d="M34.8 68.2c.3.1.6.2.9.2.6 0 1.2-.2 1.7-.7l10-10.1V66c0 1 .6 1.8 1.5 2.2.3.1.6.2.9.2.6 0 1.2-.2 1.7-.7L67 52.2c.4-.5.7-1.1.7-1.7s-.3-1.2-.7-1.7L51.5 33.3c-.7-.7-1.7-.9-2.6-.5-.9.4-1.5 1.2-1.5 2.2v8.4l-10-10c-.7-.7-1.7-.9-2.6-.5-.9.4-1.5 1.2-1.5 2.2v31c0 .9.6 1.7 1.5 2.1zm17.4-27.4l9.7 9.7-9.7 9.7V40.8zm-14.1 0l9.3 9.3v.7l-9.3 9.3V40.8z"/><metadata><rdf:RDF xmlns:rdf="http://www.w3.org/1999/02/22-rdf-syntax-ns#" xmlns:rdfs="http://www.w3.org/2000/01/rdf-schema#" xmlns:dc="http://purl.org/dc/elements/1.1/"><rdf:Description about="https://iconscout.com/legal#licenses" dc:title="fastforward,media,button" dc:description="fastforward,media,button" dc:publisher="Iconscout" dc:date="2017-11-15" dc:format="image/svg+xml" dc:language="en"><dc:creator><rdf:Bag><rdf:li>Lucía González</rdf:li></rdf:Bag></dc:creator></rdf:Description></rdf:RDF></metadata></svg>