<?xml version="1.0" encoding="UTF-8"?><svg xmlns="http://www.w3.org/2000/svg" xmlns:xlink="http://www.w3.org/1999/xlink" version="1.1" id="Layer_1" x="0px" y="0px" viewBox="0 0 101 101" xml:space="preserve"><path d="M49.5 67.7c.5.5 1.1.7 1.7.7.3 0 .6-.1.9-.2.9-.4 1.5-1.2 1.5-2.2v-8.4l10 10c.5.5 1.1.7 1.7.7.3 0 .6-.1.9-.2.9-.4 1.5-1.2 1.5-2.2V35c0-1-.6-1.8-1.5-2.2-.9-.4-1.9-.2-2.6.5l-10 10V35c0-1-.6-1.8-1.5-2.2-.9-.4-1.9-.2-2.6.5L34 48.8c-.4.4-.7 1.1-.7 1.7s.3 1.2.7 1.7l15.5 15.5zm13.4-26.9v19.4l-9.3-9.3v-.7l9.3-9.4zm-14.1 0v19.5l-9.7-9.7 9.7-9.8z"/><metadata><rdf:RDF xmlns:rdf="http://www.w3.org/1999/02/22-rdf-syntax-ns#" xmlns:rdfs="http://www.w3.org/2000/01/rdf-schema#" xmlns:dc="http://purl.org/dc/elements/1.1/"><rdf:Description about="https://iconscout.com/legal#licenses" dc:title="fastbackward,media,button" dc:description="fastbackward,media,button" dc:publisher="Iconscout" dc:date="2017-11-15" dc:format="image/svg+xml" dc:language="en"><dc:creator><rdf:Bag><rdf:li>Lucía González</rdf:li></rdf:Bag></dc:creator></rdf:Description></rdf:RDF></metadata></svg>