<?xml version="1.0" encoding="UTF-8"?><svg xmlns="http://www.w3.org/2000/svg" xmlns:xlink="http://www.w3.org/1999/xlink" version="1.1" id="Layer_1" x="0px" y="0px" viewBox="0 0 101 101" xml:space="preserve"><path d="M77.4 16.4H37.1c-.2 0-.4 0-.6.1h-.1c-.2.1-.3.1-.5.2-.1 0-.1.1-.2.1-.2.1-.3.3-.5.4L21.8 33.1c-.2.2-.3.4-.4.7 0 .1 0 .2-.1.2 0 .2-.1.3-.1.5v47.6c0 1.3 1.1 2.4 2.4 2.4h53.8c1.3 0 2.4-1.1 2.4-2.4V18.8c0-1.3-1.1-2.4-2.4-2.4zm-42.7 9v6.9h-5.9l5.9-6.9zM75 79.8H26V37.1h11c1.3 0 2.4-1.1 2.4-2.4V21.2H75v58.6z"/><path d="M33.2 42.3c-1.3 0-2.4 1.1-2.4 2.4 0 1.3 1.1 2.4 2.4 2.4h34.7c1.3 0 2.4-1.1 2.4-2.4 0-1.3-1.1-2.4-2.4-2.4H33.2z"/><path d="M67.8 53.9H33.2c-1.3 0-2.4 1.1-2.4 2.4 0 1.3 1.1 2.4 2.4 2.4h34.7c1.3 0 2.4-1.1 2.4-2.4-.1-1.3-1.1-2.4-2.5-2.4z"/><metadata><rdf:RDF xmlns:rdf="http://www.w3.org/1999/02/22-rdf-syntax-ns#" xmlns:rdfs="http://www.w3.org/2000/01/rdf-schema#" xmlns:dc="http://purl.org/dc/elements/1.1/"><rdf:Description about="https://iconscout.com/legal#licenses" dc:title="file,note" dc:description="file,note" dc:publisher="Iconscout" dc:date="2017-11-15" dc:format="image/svg+xml" dc:language="en"><dc:creator><rdf:Bag><rdf:li>Lucía González</rdf:li></rdf:Bag></dc:creator></rdf:Description></rdf:RDF></metadata></svg>