<?xml version="1.0" encoding="UTF-8"?><svg xmlns="http://www.w3.org/2000/svg" xmlns:xlink="http://www.w3.org/1999/xlink" version="1.1" id="Layer_1" x="0px" y="0px" viewBox="0 0 101 101" xml:space="preserve"><path d="M82.2 16.4H18.8c-1.3 0-2.4 1.1-2.4 2.4v63.4c0 1.3 1.1 2.4 2.4 2.4H82.2c1.3 0 2.4-1.1 2.4-2.4V18.8c0-1.3-1.1-2.4-2.4-2.4zm-4.9 31.7h-5.5v-11h8v11h-2.5zm-10.3 0H34V21.2h33v26.9zm-37.8 0h-8v-11h8v11zm-8 4.8h8v11h-8v-11zm12.8 0h33v26.9H34V52.9zm37.8 0h8v11h-8v-11zm8-20.6h-8v-11h8v11zM29.2 21.2v11h-8v-11h8zm-8 47.5h8v11h-8v-11zm50.6 11.1v-11h8v11h-8z"/><metadata><rdf:RDF xmlns:rdf="http://www.w3.org/1999/02/22-rdf-syntax-ns#" xmlns:rdfs="http://www.w3.org/2000/01/rdf-schema#" xmlns:dc="http://purl.org/dc/elements/1.1/"><rdf:Description about="https://iconscout.com/legal#licenses" dc:title="film,clip,cinmea,movie" dc:description="film,clip,cinmea,movie" dc:publisher="Iconscout" dc:date="2017-11-15" dc:format="image/svg+xml" dc:language="en"><dc:creator><rdf:Bag><rdf:li>Lucía González</rdf:li></rdf:Bag></dc:creator></rdf:Description></rdf:RDF></metadata></svg>