<?xml version="1.0" encoding="UTF-8"?><svg xmlns="http://www.w3.org/2000/svg" xmlns:xlink="http://www.w3.org/1999/xlink" version="1.1" id="Layer_1" x="0px" y="0px" viewBox="0 0 101 101" xml:space="preserve"><path d="M45.4 84.6c-.3 0-.6-.1-.9-.2-1-.4-1.6-1.5-1.5-2.6L47.7 55l-17.3-.1c-.9 0-1.8-.5-2.1-1.4-.4-.8-.3-1.8.3-2.5l26.8-33.7c.7-.9 1.9-1.1 2.9-.7 1 .5 1.6 1.5 1.4 2.6L55 43.3l15.6.1c.9 0 1.7.5 2.1 1.3.4.8.3 1.7-.2 2.5L47.4 83.6c-.5.7-1.2 1-2 1zM35.3 50.1l15.2.1c.7 0 1.4.3 1.8.9.5.5.6 1.3.5 1.9l-3.3 18.9L66 48.2l-14-.1c-.7 0-1.4-.3-1.8-.9-.5-.5-.6-1.3-.5-2L53 27.9 35.3 50.1z"/><metadata><rdf:RDF xmlns:rdf="http://www.w3.org/1999/02/22-rdf-syntax-ns#" xmlns:rdfs="http://www.w3.org/2000/01/rdf-schema#" xmlns:dc="http://purl.org/dc/elements/1.1/"><rdf:Description about="https://iconscout.com/legal#licenses" dc:title="flash,thunder" dc:description="flash,thunder" dc:publisher="Iconscout" dc:date="2017-11-15" dc:format="image/svg+xml" dc:language="en"><dc:creator><rdf:Bag><rdf:li>Lucía González</rdf:li></rdf:Bag></dc:creator></rdf:Description></rdf:RDF></metadata></svg>