<?xml version="1.0" encoding="UTF-8"?><svg xmlns="http://www.w3.org/2000/svg" xmlns:xlink="http://www.w3.org/1999/xlink" version="1.1" id="Layer_1" x="0px" y="0px" viewBox="0 0 101 101" xml:space="preserve"><path d="M50.5 16.5c-18.8 0-34.1 15.3-34.1 34.1v31.5c0 1.3 1.1 2.4 2.4 2.4h12.4c1.3 0 2.4-1.1 2.4-2.4V53.3c0-1.3-1.1-2.4-2.4-2.4h-10v-.3c0-16.1 13.1-29.3 29.3-29.3s29.3 13.1 29.3 29.3v.3h-10c-1.3 0-2.4 1.1-2.4 2.4v28.8c0 1.3 1.1 2.4 2.4 2.4h12.4c1.3 0 2.4-1.1 2.4-2.4V50.6c0-18.8-15.3-34.1-34.1-34.1zM28.8 55.7v24h-7.6v-24h7.6zm51 24h-7.6v-24h7.6v24z"/><metadata><rdf:RDF xmlns:rdf="http://www.w3.org/1999/02/22-rdf-syntax-ns#" xmlns:rdfs="http://www.w3.org/2000/01/rdf-schema#" xmlns:dc="http://purl.org/dc/elements/1.1/"><rdf:Description about="https://iconscout.com/legal#licenses" dc:title="headphone,earphone" dc:description="headphone,earphone" dc:publisher="Iconscout" dc:date="2017-11-15" dc:format="image/svg+xml" dc:language="en"><dc:creator><rdf:Bag><rdf:li>Lucía González</rdf:li></rdf:Bag></dc:creator></rdf:Description></rdf:RDF></metadata></svg>