<?xml version="1.0" encoding="UTF-8"?><svg xmlns="http://www.w3.org/2000/svg" xmlns:xlink="http://www.w3.org/1999/xlink" version="1.1" id="Layer_1" x="0px" y="0px" viewBox="0 0 101 101" xml:space="preserve"><path d="M18.8 84.6h63.3c1.3 0 2.4-1.1 2.4-2.4V50.5 50c0-.1-.1-.2-.1-.3v-.1c0-.1-.1-.2-.2-.3 0 0 0-.1-.1-.1-.1-.1-.2-.3-.3-.4L52.2 17.1c-.9-.9-2.5-.9-3.4 0L17.1 48.8c-.1.1-.2.2-.3.4 0 0 0 .1-.1.1-.1.1-.1.2-.2.3v.2c0 .1-.1.2-.1.3v32.2c0 1.2 1.1 2.3 2.4 2.3zm37.3-4.8h-11v-11h11v11zm4.8 0V66.3c0-1.3-1.1-2.4-2.4-2.4H42.7c-1.3 0-2.4 1.1-2.4 2.4v13.4h-19V52.9h58.6v26.9h-19zM50.5 22.2l25.9 25.9H24.6l25.9-25.9z"/><metadata><rdf:RDF xmlns:rdf="http://www.w3.org/1999/02/22-rdf-syntax-ns#" xmlns:rdfs="http://www.w3.org/2000/01/rdf-schema#" xmlns:dc="http://purl.org/dc/elements/1.1/"><rdf:Description about="https://iconscout.com/legal#licenses" dc:title="home" dc:description="home" dc:publisher="Iconscout" dc:date="2017-11-15" dc:format="image/svg+xml" dc:language="en"><dc:creator><rdf:Bag><rdf:li>Lucía González</rdf:li></rdf:Bag></dc:creator></rdf:Description></rdf:RDF></metadata></svg>