<?xml version="1.0" encoding="UTF-8"?><svg xmlns="http://www.w3.org/2000/svg" xmlns:xlink="http://www.w3.org/1999/xlink" version="1.1" id="Layer_1" x="0px" y="0px" viewBox="0 0 101 101" xml:space="preserve"><path d="M75.6 30c1-.3 1.7-1.2 1.7-2.3v-8.5c0-1.3-1.1-2.4-2.4-2.4H26.1c-1.3 0-2.4 1.1-2.4 2.4v8.5c0 1.1.7 2 1.7 2.3.8 9.1 6.5 16.8 14.4 20.5-7.9 3.7-13.6 11.4-14.4 20.5-1 .3-1.7 1.2-1.7 2.3v8.5c0 1.3 1.1 2.4 2.4 2.4h48.8c1.3 0 2.4-1.1 2.4-2.4v-8.5c0-1.1-.7-2-1.7-2.3-.8-9.1-6.5-16.8-14.4-20.5 7.9-3.7 13.6-11.4 14.4-20.5zm-47.1-8.4h44v3.7h-44v-3.7zm44 57.8h-44v-3.7h44v3.7zm-1.7-8.5H30.2c1.2-10.1 9.8-18 20.3-18s19.1 7.9 20.3 18zM50.5 48.1c-10.5 0-19.1-7.9-20.3-18h40.6c-1.2 10.1-9.8 18-20.3 18z"/><metadata><rdf:RDF xmlns:rdf="http://www.w3.org/1999/02/22-rdf-syntax-ns#" xmlns:rdfs="http://www.w3.org/2000/01/rdf-schema#" xmlns:dc="http://purl.org/dc/elements/1.1/"><rdf:Description about="https://iconscout.com/legal#licenses" dc:title="hourglass,sand,time" dc:description="hourglass,sand,time" dc:publisher="Iconscout" dc:date="2017-11-15" dc:format="image/svg+xml" dc:language="en"><dc:creator><rdf:Bag><rdf:li>Lucía González</rdf:li></rdf:Bag></dc:creator></rdf:Description></rdf:RDF></metadata></svg>