<?xml version="1.0" encoding="UTF-8"?><svg xmlns="http://www.w3.org/2000/svg" xmlns:xlink="http://www.w3.org/1999/xlink" version="1.1" id="Layer_1" x="0px" y="0px" viewBox="0 0 101 101" xml:space="preserve"><circle cx="57.3" cy="37.6" r="3.9"/><path d="M16.5 82.7c0 .1 0 .1 0 0 .1.2.1.4.2.5 0 0 0 .1.1.1 0 0 0 .1.1.1v.1c.1.1.2.2.2.3l.1.1.1.1s.1 0 .1.1c.1 0 .1.1.2.1h.2c.1 0 .2.1.2.1h.2c.2 0 .4.1.5.1h63.4c1.3 0 2.4-1.1 2.4-2.4V19c0-1.3-1.1-2.4-2.4-2.4H18.8c-1.3 0-2.4 1.1-2.4 2.4v63c0 .2.1.4.1.7zm4.7-15.2l22.6-14.3 5.7 5.8-28.3 18.6V67.5zm58.6 12.1H26.9L66 54.1l13.8 13.2v12.3zm0-58.2v39.3L67.9 49.3c-.8-.8-2-.9-3-.3l-11.2 7.3-7.8-7.9c-.8-.8-2-.9-3-.3L21.2 61.9V21.4h58.6z"/><metadata><rdf:RDF xmlns:rdf="http://www.w3.org/1999/02/22-rdf-syntax-ns#" xmlns:rdfs="http://www.w3.org/2000/01/rdf-schema#" xmlns:dc="http://purl.org/dc/elements/1.1/"><rdf:Description about="https://iconscout.com/legal#licenses" dc:title="image,galery" dc:description="image,galery" dc:publisher="Iconscout" dc:date="2017-11-15" dc:format="image/svg+xml" dc:language="en"><dc:creator><rdf:Bag><rdf:li>Lucía González</rdf:li></rdf:Bag></dc:creator></rdf:Description></rdf:RDF></metadata></svg>