<?xml version="1.0" encoding="UTF-8"?><svg xmlns="http://www.w3.org/2000/svg" xmlns:xlink="http://www.w3.org/1999/xlink" version="1.1" id="Layer_1" x="0px" y="0px" viewBox="0 0 101 101" xml:space="preserve"><path d="M82.2 16.4H18.8c-1.3 0-2.4 1.1-2.4 2.4v63.4c0 1.3 1.1 2.4 2.4 2.4h63.4c1.3 0 2.4-1.1 2.4-2.4V18.8c0-1.3-1.1-2.4-2.4-2.4zm-2.4 31.7h-12C66.7 39.6 59.3 33 50.5 33c-5 0-9.5 2.1-12.7 5.5V21.2h42v26.9zm-16.6 2.4c0 7-5.7 12.7-12.7 12.7s-12.7-5.7-12.7-12.7 5.7-12.7 12.7-12.7 12.7 5.7 12.7 12.7zm-42-29.3H33v26.9H21.2V21.2zm0 58.6V52.9h11.9C34.3 61.4 41.7 68 50.5 68s16.2-6.6 17.3-15.1h11.9v26.9H21.2z"/><path d="M63.3 32.1h6.2c1.3 0 2.4-1.1 2.4-2.4s-1.1-2.4-2.4-2.4h-6.2c-1.3 0-2.4 1.1-2.4 2.4s1.1 2.4 2.4 2.4z"/><path d="M50.5 41.4c-5 0-9.1 4.1-9.1 9.1s4.1 9.1 9.1 9.1 9.1-4.1 9.1-9.1-4.1-9.1-9.1-9.1zm0 13.4c-2.4 0-4.3-1.9-4.3-4.3s1.9-4.3 4.3-4.3 4.3 1.9 4.3 4.3-1.9 4.3-4.3 4.3z"/><metadata><rdf:RDF xmlns:rdf="http://www.w3.org/1999/02/22-rdf-syntax-ns#" xmlns:rdfs="http://www.w3.org/2000/01/rdf-schema#" xmlns:dc="http://purl.org/dc/elements/1.1/"><rdf:Description about="https://iconscout.com/legal#licenses" dc:title="instagram,camera" dc:description="instagram,camera" dc:publisher="Iconscout" dc:date="2017-11-15" dc:format="image/svg+xml" dc:language="en"><dc:creator><rdf:Bag><rdf:li>Lucía González</rdf:li></rdf:Bag></dc:creator></rdf:Description></rdf:RDF></metadata></svg>