<?xml version="1.0" encoding="UTF-8"?><svg xmlns="http://www.w3.org/2000/svg" xmlns:xlink="http://www.w3.org/1999/xlink" version="1.1" id="Layer_1" x="0px" y="0px" viewBox="0 0 101 101" xml:space="preserve"><path d="M31.1 79.3c1.7 1.7 3.9 2.6 6.2 2.6 2.4 0 4.6-.9 6.2-2.6L56.8 66c1.7-1.7 2.6-3.9 2.6-6.2v-.3h.3c2.4 0 4.6-.9 6.2-2.6l13.3-13.3c3.4-3.4 3.4-9 0-12.5l-9.3-9.3c-1.7-1.7-3.9-2.6-6.2-2.6s-4.6.9-6.2 2.6L44.1 35.1c-1.7 1.7-2.6 3.9-2.6 6.2v.3h-.3c-2.4 0-4.6.9-6.2 2.6L21.7 57.5c-3.4 3.4-3.4 9 0 12.5l9.4 9.3zm15.3-38c0-1.1.4-2.1 1.2-2.8l13.3-13.3c.8-.8 1.8-1.2 2.8-1.2 1.1 0 2.1.4 2.8 1.2l9.3 9.3c1.6 1.6 1.6 4.1 0 5.7L62.5 53.5c-1.5 1.5-4.2 1.5-5.7 0l-3-3 2.7-2.7c.9-.9.9-2.5 0-3.4s-2.5-.9-3.4 0l-2.7 2.7-3-3c-.6-.7-1-1.7-1-2.8zM25.1 60.9l13.3-13.3c.8-.8 1.8-1.2 2.8-1.2 1.1 0 2.1.4 2.8 1.2l3 3-2.7 2.7c-.9.9-.9 2.5 0 3.4.5.5 1.1.7 1.7.7.6 0 1.2-.2 1.7-.7l2.7-2.7 3 3c.8.8 1.2 1.8 1.2 2.8s-.4 2.1-1.2 2.8L40.1 75.9c-1.5 1.5-4.2 1.5-5.7 0l-9.3-9.3c-1.5-1.6-1.5-4.2 0-5.7z"/><metadata><rdf:RDF xmlns:rdf="http://www.w3.org/1999/02/22-rdf-syntax-ns#" xmlns:rdfs="http://www.w3.org/2000/01/rdf-schema#" xmlns:dc="http://purl.org/dc/elements/1.1/"><rdf:Description about="https://iconscout.com/legal#licenses" dc:title="link" dc:description="link" dc:publisher="Iconscout" dc:date="2017-11-15" dc:format="image/svg+xml" dc:language="en"><dc:creator><rdf:Bag><rdf:li>Lucía González</rdf:li></rdf:Bag></dc:creator></rdf:Description></rdf:RDF></metadata></svg>