<?xml version="1.0" encoding="UTF-8"?><svg xmlns="http://www.w3.org/2000/svg" xmlns:xlink="http://www.w3.org/1999/xlink" version="1.1" id="Layer_1" x="0px" y="0px" viewBox="0 0 101 101" xml:space="preserve"><path d="M76.3 51.8c.1-.2.2-.3.2-.4v-.1c0-.1.1-.2.1-.3v-.5-.5c0-.1-.1-.2-.1-.3v-.1c0-.1-.1-.2-.2-.3v-.1c-.1-.1-.2-.3-.3-.4L60.1 33c-.9-.9-2.5-.9-3.4 0s-.9 2.5 0 3.4l11.7 11.7H26.7c-1.3 0-2.4 1.1-2.4 2.4s1.1 2.4 2.4 2.4h41.7L56.7 64.6c-.9.9-.9 2.5 0 3.4.5.5 1.1.7 1.7.7s1.2-.2 1.7-.7L76 52.2c.1-.1.2-.2.3-.4z"/><path d="M66.3 56.1c-1.3 0-2.4 1.1-2.4 2.4v21.3H37.1V21.2H64v21.3c0 1.3 1.1 2.4 2.4 2.4s2.4-1.1 2.4-2.4V18.8c0-1.3-1.1-2.4-2.4-2.4H34.7c-1.3 0-2.4 1.1-2.4 2.4v63.4c0 1.3 1.1 2.4 2.4 2.4h31.7c1.3 0 2.4-1.1 2.4-2.4V58.5c-.1-1.3-1.1-2.4-2.5-2.4z"/><metadata><rdf:RDF xmlns:rdf="http://www.w3.org/1999/02/22-rdf-syntax-ns#" xmlns:rdfs="http://www.w3.org/2000/01/rdf-schema#" xmlns:dc="http://purl.org/dc/elements/1.1/"><rdf:Description about="https://iconscout.com/legal#licenses" dc:title="logout,exit" dc:description="logout,exit" dc:publisher="Iconscout" dc:date="2017-11-15" dc:format="image/svg+xml" dc:language="en"><dc:creator><rdf:Bag><rdf:li>Lucía González</rdf:li></rdf:Bag></dc:creator></rdf:Description></rdf:RDF></metadata></svg>