<?xml version="1.0" encoding="UTF-8"?><svg xmlns="http://www.w3.org/2000/svg" xmlns:xlink="http://www.w3.org/1999/xlink" version="1.1" id="Layer_1" x="0px" y="0px" viewBox="0 0 101 101" xml:space="preserve"><path d="M16.5 82.4c0 1.3 1.1 2.4 2.4 2.4h12.4c1.3 0 2.4-1.1 2.4-2.4V50.1c0-9.2 7.5-16.7 16.7-16.7s16.7 7.5 16.7 16.7V82c0 1.3 1.1 2.4 2.4 2.4h12.4c1.3 0 2.4-1.1 2.4-2.4V50.2c0-18.7-15.2-34-34-34s-34 15.2-34 34v32.2zm4.8-2.4v-7.9H29V80h-7.7zm50.7-.3v-7.6h7.6v7.6H72zM50.5 21c16.1 0 29.2 13.1 29.2 29.2v17.1H72V50.1c0-11.9-9.7-21.5-21.5-21.5S29 38.3 29 50.1v17.1h-7.6v-17C21.3 34.1 34.4 21 50.5 21z"/><metadata><rdf:RDF xmlns:rdf="http://www.w3.org/1999/02/22-rdf-syntax-ns#" xmlns:rdfs="http://www.w3.org/2000/01/rdf-schema#" xmlns:dc="http://purl.org/dc/elements/1.1/"><rdf:Description about="https://iconscout.com/legal#licenses" dc:title="magnet" dc:description="magnet" dc:publisher="Iconscout" dc:date="2017-11-15" dc:format="image/svg+xml" dc:language="en"><dc:creator><rdf:Bag><rdf:li>Lucía González</rdf:li></rdf:Bag></dc:creator></rdf:Description></rdf:RDF></metadata></svg>