<?xml version="1.0" encoding="UTF-8"?><svg xmlns="http://www.w3.org/2000/svg" xmlns:xlink="http://www.w3.org/1999/xlink" version="1.1" id="Layer_1" x="0px" y="0px" viewBox="0 0 101 101" xml:space="preserve"><path d="M84.6 23.6c0-1.3-1.1-2.4-2.4-2.4H18.8c-1.3 0-2.4 1.1-2.4 2.4V78c0 .1 0 .2.1.2 0 .1.1.1.1.2s.1.1.1.2.1.1.1.2.1.1.1.2l.2.2s0 .1.1.1h.1c.2.2.4.3.6.4h.1c.2.1.5.1.7.1h63.4c.3 0 .5-.1.7-.1h.1c.2-.1.4-.2.6-.4h.1s0-.1.1-.1l.2-.2c.1-.1.1-.1.1-.2s.1-.1.1-.2.1-.1.1-.2.1-.1.1-.2.1-.2.1-.2v-.2-.3-53.9zM21.2 39.4L37.8 51 21.2 70.8V39.4zm20.5 14.3l7.4 5.1c.4.3.9.4 1.4.4s1-.1 1.4-.4l7.4-5.1L77 75H24l17.7-21.3zM63.2 51l16.6-11.6v31.4L63.2 51zm16.6-25v7.5L50.5 54 21.2 33.6V26h58.6z"/><metadata><rdf:RDF xmlns:rdf="http://www.w3.org/1999/02/22-rdf-syntax-ns#" xmlns:rdfs="http://www.w3.org/2000/01/rdf-schema#" xmlns:dc="http://purl.org/dc/elements/1.1/"><rdf:Description about="https://iconscout.com/legal#licenses" dc:title="mail,message,email,envelope" dc:description="mail,message,email,envelope" dc:publisher="Iconscout" dc:date="2017-11-15" dc:format="image/svg+xml" dc:language="en"><dc:creator><rdf:Bag><rdf:li>Lucía González</rdf:li></rdf:Bag></dc:creator></rdf:Description></rdf:RDF></metadata></svg>