<?xml version="1.0" encoding="UTF-8"?><svg xmlns="http://www.w3.org/2000/svg" xmlns:xlink="http://www.w3.org/1999/xlink" version="1.1" id="Layer_1" x="0px" y="0px" viewBox="0 0 101 101" xml:space="preserve"><path d="M34.7 37.1h31.7c1.3 0 2.4-1.1 2.4-2.4s-1.1-2.4-2.4-2.4H34.7c-1.3 0-2.4 1.1-2.4 2.4s1 2.4 2.4 2.4z"/><path d="M66.3 63.9H34.7c-1.3 0-2.4 1.1-2.4 2.4s1.1 2.4 2.4 2.4h31.7c1.3 0 2.4-1.1 2.4-2.4s-1.1-2.4-2.5-2.4z"/><path d="M66.3 48.1H34.7c-1.3 0-2.4 1.1-2.4 2.4s1.1 2.4 2.4 2.4h31.7c1.3 0 2.4-1.1 2.4-2.4s-1.1-2.4-2.5-2.4z"/><metadata><rdf:RDF xmlns:rdf="http://www.w3.org/1999/02/22-rdf-syntax-ns#" xmlns:rdfs="http://www.w3.org/2000/01/rdf-schema#" xmlns:dc="http://purl.org/dc/elements/1.1/"><rdf:Description about="https://iconscout.com/legal#licenses" dc:title="menu,list" dc:description="menu,list" dc:publisher="Iconscout" dc:date="2017-11-15" dc:format="image/svg+xml" dc:language="en"><dc:creator><rdf:Bag><rdf:li>Lucía González</rdf:li></rdf:Bag></dc:creator></rdf:Description></rdf:RDF></metadata></svg>