<?xml version="1.0" encoding="UTF-8"?><svg xmlns="http://www.w3.org/2000/svg" xmlns:xlink="http://www.w3.org/1999/xlink" version="1.1" id="Layer_1" x="0px" y="0px" viewBox="0 0 101 101" xml:space="preserve"><path d="M18.8 47.2h26c1.3 0 2.4-1.1 2.4-2.4v-26c0-1.3-1.1-2.4-2.4-2.4h-26c-1.3 0-2.4 1.1-2.4 2.4v26c0 1.3 1.1 2.4 2.4 2.4zm2.4-26h21.2v21.2H21.2V21.2z"/><path d="M82.2 47.2c1.3 0 2.4-1.1 2.4-2.4v-26c0-1.3-1.1-2.4-2.4-2.4h-26c-1.3 0-2.4 1.1-2.4 2.4v26c0 1.3 1.1 2.4 2.4 2.4h26zm-23.6-26h21.2v21.2H58.6V21.2z"/><path d="M18.8 61c-1.3 0-2.4 1.1-2.4 2.4 0 1.3 1.1 2.4 2.4 2.4l63.4.1c1.3 0 2.4-1.1 2.4-2.4 0-1.3-1.1-2.4-2.4-2.4L18.8 61z"/><path d="M18.8 84.5l63.4.1c1.3 0 2.4-1.1 2.4-2.4s-1.1-2.4-2.4-2.4l-63.4-.1c-1.3 0-2.4 1.1-2.4 2.4 0 1.3 1.1 2.4 2.4 2.4z"/><metadata><rdf:RDF xmlns:rdf="http://www.w3.org/1999/02/22-rdf-syntax-ns#" xmlns:rdfs="http://www.w3.org/2000/01/rdf-schema#" xmlns:dc="http://purl.org/dc/elements/1.1/"><rdf:Description about="https://iconscout.com/legal#licenses" dc:title="menu,list,app" dc:description="menu,list,app" dc:publisher="Iconscout" dc:date="2017-11-15" dc:format="image/svg+xml" dc:language="en"><dc:creator><rdf:Bag><rdf:li>Lucía González</rdf:li></rdf:Bag></dc:creator></rdf:Description></rdf:RDF></metadata></svg>