<?xml version="1.0" encoding="UTF-8"?><svg xmlns="http://www.w3.org/2000/svg" xmlns:xlink="http://www.w3.org/1999/xlink" version="1.1" id="Layer_1" x="0px" y="0px" viewBox="0 0 101 101" xml:space="preserve"><path d="M50.5 62.9c9 0 16.3-7.3 16.3-16.3V32.7c0-9-7.3-16.3-16.3-16.3s-16.3 7.3-16.3 16.3v13.9c0 9 7.3 16.3 16.3 16.3zM39 32.7c0-6.3 5.2-11.5 11.5-11.5S62 26.3 62 32.7V45c0 6.3-5.2 11.5-11.5 11.5S39 51.3 39 45V32.7z"/><path d="M65.4 79.8H52.9v-10c11.7-1.2 20.9-11.1 20.9-23.2 0-1.3-1.1-2.4-2.4-2.4-1.3 0-2.4 1.1-2.4 2.4 0 10.2-8.3 18.5-18.5 18.5S32 56.8 32 46.6c0-1.3-1.1-2.4-2.4-2.4-1.3 0-2.4 1.1-2.4 2.4 0 12 9.2 22 20.9 23.2v10H34.7c-1.3 0-2.4 1.1-2.4 2.4s1.1 2.4 2.4 2.4h30.7c1.3 0 2.4-1.1 2.4-2.4s-1.1-2.4-2.4-2.4z"/><metadata><rdf:RDF xmlns:rdf="http://www.w3.org/1999/02/22-rdf-syntax-ns#" xmlns:rdfs="http://www.w3.org/2000/01/rdf-schema#" xmlns:dc="http://purl.org/dc/elements/1.1/"><rdf:Description about="https://iconscout.com/legal#licenses" dc:title="mic,audio,record,sound" dc:description="mic,audio,record,sound" dc:publisher="Iconscout" dc:date="2017-11-15" dc:format="image/svg+xml" dc:language="en"><dc:creator><rdf:Bag><rdf:li>Lucía González</rdf:li></rdf:Bag></dc:creator></rdf:Description></rdf:RDF></metadata></svg>