<?xml version="1.0" encoding="UTF-8"?><svg xmlns="http://www.w3.org/2000/svg" xmlns:xlink="http://www.w3.org/1999/xlink" version="1.1" id="Layer_1" x="0px" y="0px" viewBox="0 0 101 101" xml:space="preserve"><path d="M82.2 23.4h-12v-2c0-1.3-1.1-2.4-2.4-2.4-1.3 0-2.4 1.1-2.4 2.4v2H35.9v-2c0-1.3-1.1-2.4-2.4-2.4s-2.4 1.1-2.4 2.4v2H18.8c-1.3 0-2.4 1.1-2.4 2.4v53.8c0 1.3 1.1 2.4 2.4 2.4h63.4c1.3 0 2.4-1.1 2.4-2.4V25.8c0-1.3-1.1-2.4-2.4-2.4zm-51.1 4.8v1.3c0 1.3 1.1 2.4 2.4 2.4s2.4-1.1 2.4-2.4v-1.3h29.5v1.3c0 1.3 1.1 2.4 2.4 2.4 1.3 0 2.4-1.1 2.4-2.4v-1.3h9.5v6.2H21.2v-6.2h9.9zm-9.9 49V39.3h58.6v37.9H21.2z"/><path d="M67.8 50.3H33.2c-1.3 0-2.4 1.1-2.4 2.4s1.1 2.4 2.4 2.4h34.7c1.3 0 2.4-1.1 2.4-2.4s-1.1-2.4-2.5-2.4z"/><path d="M50.5 62H33.2c-1.3 0-2.4 1.1-2.4 2.4 0 1.3 1.1 2.4 2.4 2.4h17.3c1.3 0 2.4-1.1 2.4-2.4 0-1.4-1.1-2.4-2.4-2.4z"/><metadata><rdf:RDF xmlns:rdf="http://www.w3.org/1999/02/22-rdf-syntax-ns#" xmlns:rdfs="http://www.w3.org/2000/01/rdf-schema#" xmlns:dc="http://purl.org/dc/elements/1.1/"><rdf:Description about="https://iconscout.com/legal#licenses" dc:title="notes,schedule,dairy" dc:description="notes,schedule,dairy" dc:publisher="Iconscout" dc:date="2017-11-15" dc:format="image/svg+xml" dc:language="en"><dc:creator><rdf:Bag><rdf:li>Lucía González</rdf:li></rdf:Bag></dc:creator></rdf:Description></rdf:RDF></metadata></svg>