<?xml version="1.0" encoding="UTF-8"?><svg xmlns="http://www.w3.org/2000/svg" xmlns:xlink="http://www.w3.org/1999/xlink" version="1.1" id="Layer_1" x="0px" y="0px" viewBox="0 0 101 101" xml:space="preserve"><path d="M50.5 92.2c18.8 0 34.1-15.3 34.1-34.1S69.3 24 50.5 24 16.4 39.3 16.4 58.1s15.3 34.1 34.1 34.1zm0-63.4c16.1 0 29.3 13.1 29.3 29.3S66.6 87.4 50.5 87.4 21.2 74.2 21.2 58.1s13.2-29.3 29.3-29.3z"/><path d="M44.2 75.8c1.3 0 2.4-1.1 2.4-2.4V42.3c0-1.3-1.1-2.4-2.4-2.4-1.3 0-2.4 1.1-2.4 2.4v31.1c0 1.3 1.1 2.4 2.4 2.4z"/><path d="M56.8 75.8c1.3 0 2.4-1.1 2.4-2.4V42.3c0-1.3-1.1-2.4-2.4-2.4-1.3 0-2.4 1.1-2.4 2.4v31.1c0 1.3 1 2.4 2.4 2.4z"/><metadata><rdf:RDF xmlns:rdf="http://www.w3.org/1999/02/22-rdf-syntax-ns#" xmlns:rdfs="http://www.w3.org/2000/01/rdf-schema#" xmlns:dc="http://purl.org/dc/elements/1.1/"><rdf:Description about="https://iconscout.com/legal#licenses" dc:title="pause,music,player,button" dc:description="pause,music,player,button" dc:publisher="Iconscout" dc:date="2017-11-15" dc:format="image/svg+xml" dc:language="en"><dc:creator><rdf:Bag><rdf:li>Lucía González</rdf:li></rdf:Bag></dc:creator></rdf:Description></rdf:RDF></metadata></svg>