<?xml version="1.0" encoding="UTF-8"?><svg xmlns="http://www.w3.org/2000/svg" xmlns:xlink="http://www.w3.org/1999/xlink" version="1.1" id="Layer_1" x="0px" y="0px" viewBox="0 0 101 101" xml:space="preserve"><path d="M51.6 84.6h-.2c-1-.1-1.8-.7-2.1-1.6l-7.5-22.6-23.7-7.5c-.9-.3-1.6-1.1-1.7-2.1-.1-1 .4-1.9 1.3-2.3l63.4-31.7c.9-.5 2-.3 2.8.4.7.7.9 1.8.5 2.8L53.7 83.2c-.4.9-1.2 1.4-2.1 1.4zM25.2 50l19.2 6.1c.7.2 1.3.8 1.5 1.5L52 75.8l25-51.7L25.2 50z"/><metadata><rdf:RDF xmlns:rdf="http://www.w3.org/1999/02/22-rdf-syntax-ns#" xmlns:rdfs="http://www.w3.org/2000/01/rdf-schema#" xmlns:dc="http://purl.org/dc/elements/1.1/"><rdf:Description about="https://iconscout.com/legal#licenses" dc:title="pin,marker,direction,location" dc:description="pin,marker,direction,location" dc:publisher="Iconscout" dc:date="2017-11-15" dc:format="image/svg+xml" dc:language="en"><dc:creator><rdf:Bag><rdf:li>Lucía González</rdf:li></rdf:Bag></dc:creator></rdf:Description></rdf:RDF></metadata></svg>