<?xml version="1.0" encoding="UTF-8"?><svg xmlns="http://www.w3.org/2000/svg" xmlns:xlink="http://www.w3.org/1999/xlink" version="1.1" id="Layer_1" x="0px" y="0px" viewBox="0 0 101 101" xml:space="preserve"><path d="M58.1 17.2c-1.3-.3-2.6.5-2.9 1.8-.3 1.3.5 2.6 1.8 2.9 13.4 3 22.8 14.8 22.8 28.6 0 16.1-13.1 29.3-29.3 29.3S21.2 66.6 21.2 50.5c0-13.7 9.3-25.4 22.7-28.5 1.3-.3 2.1-1.6 1.8-2.9-.3-1.3-1.6-2.1-2.9-1.8-15.5 3.6-26.4 17.2-26.4 33.2 0 18.8 15.3 34.1 34.1 34.1s34.1-15.3 34.1-34.1c0-16.1-10.9-29.7-26.5-33.3z"/><path d="M50.5 52.9c1.3 0 2.4-1.1 2.4-2.4V18.8c0-1.3-1.1-2.4-2.4-2.4s-2.4 1.1-2.4 2.4v31.6c0 1.4 1.1 2.5 2.4 2.5z"/><metadata><rdf:RDF xmlns:rdf="http://www.w3.org/1999/02/22-rdf-syntax-ns#" xmlns:rdfs="http://www.w3.org/2000/01/rdf-schema#" xmlns:dc="http://purl.org/dc/elements/1.1/"><rdf:Description about="https://iconscout.com/legal#licenses" dc:title="power,button,on,off" dc:description="power,button,on,off" dc:publisher="Iconscout" dc:date="2017-11-15" dc:format="image/svg+xml" dc:language="en"><dc:creator><rdf:Bag><rdf:li>Lucía González</rdf:li></rdf:Bag></dc:creator></rdf:Description></rdf:RDF></metadata></svg>