<?xml version="1.0" encoding="UTF-8"?><svg xmlns="http://www.w3.org/2000/svg" xmlns:xlink="http://www.w3.org/1999/xlink" version="1.1" id="Layer_1" x="0px" y="0px" viewBox="0 0 101 101" xml:space="preserve"><path d="M18.8 33.6h3.8v28c0 1.3 1.1 2.4 2.4 2.4h8.8L23 80.9c-.7 1.1-.4 2.6.7 3.3.4.3.8.4 1.3.4.8 0 1.6-.4 2-1.1L39.6 64h21.8l12.5 19.5c.5.7 1.2 1.1 2 1.1.4 0 .9-.1 1.3-.4 1.1-.7 1.4-2.2.7-3.3L67.1 64h8.8c1.3 0 2.4-1.1 2.4-2.4v-28h3.8c1.3 0 2.4-1.1 2.4-2.4V18.8c0-1.3-1.1-2.4-2.4-2.4H18.8c-1.3 0-2.4 1.1-2.4 2.4v12.4c0 1.3 1.1 2.4 2.4 2.4zm54.7 25.6H63.4c-.5-.2-1.1-.2-1.6 0H27.5V33.6h46.1v25.6zm-52.3-38h58.6v7.6H21.3v-7.6z"/><path d="M34.6 54.5c.6 0 1.2-.2 1.7-.7l3.8-3.8 7.9 2c.9.2 1.8-.1 2.4-.8l8-9.5c.9-1 .7-2.5-.3-3.4-1-.9-2.5-.7-3.4.3l-7 8.3L40 45c-.8-.2-1.7 0-2.3.6l-4.8 4.8c-.9.9-.9 2.5 0 3.4.5.4 1.1.7 1.7.7z"/><metadata><rdf:RDF xmlns:rdf="http://www.w3.org/1999/02/22-rdf-syntax-ns#" xmlns:rdfs="http://www.w3.org/2000/01/rdf-schema#" xmlns:dc="http://purl.org/dc/elements/1.1/"><rdf:Description about="https://iconscout.com/legal#licenses" dc:title="presenation-board,presentation,board" dc:description="presenation-board,presentation,board" dc:publisher="Iconscout" dc:date="2017-11-15" dc:format="image/svg+xml" dc:language="en"><dc:creator><rdf:Bag><rdf:li>Lucía González</rdf:li></rdf:Bag></dc:creator></rdf:Description></rdf:RDF></metadata></svg>