<?xml version="1.0" encoding="UTF-8"?><svg xmlns="http://www.w3.org/2000/svg" xmlns:xlink="http://www.w3.org/1999/xlink" version="1.1" id="Layer_1" x="0px" y="0px" viewBox="0 0 101 101" xml:space="preserve"><path d="M80.9 20.1c-2.5-2.5-5.9-3.9-9.5-3.9-3.6 0-7 1.4-9.5 3.9-1.1 1.1-2 2.4-2.7 3.8l-7-7c-.9-.9-2.5-.9-3.4 0l-32 31.9c-.9.9-.9 2.5 0 3.4l31.9 31.9c.5.4 1.1.7 1.7.7s1.2-.3 1.7-.7L62.4 74c.7-.7.9-1.7.6-2.5-.3-.9-1.1-1.5-2.1-1.6-2.1-.2-4-1-5.5-2.5-1.6-1.6-2.5-3.8-2.5-6.1s.9-4.5 2.5-6.1c1.6-1.6 3.8-2.5 6.1-2.5s4.5.9 6.1 2.5c1.5 1.5 2.4 3.4 2.5 5.5.1.9.7 1.7 1.6 2.1.9.3 1.9.1 2.5-.6l9.9-9.9c.5-.5.7-1.1.7-1.7s-.3-1.2-.7-1.7l-7-7c1.4-.7 2.7-1.6 3.8-2.7 5.3-5.3 5.3-13.9 0-19.1zm-3.4 15.6c-1.4 1.4-3.3 2.3-5.3 2.5-.9.1-1.7.7-2 1.6-.3.9-.1 1.8.6 2.5l8.2 8.2-5.2 5.2c-.7-1.5-1.6-2.9-2.8-4.1-2.5-2.5-5.9-3.9-9.5-3.9-3.6 0-7 1.4-9.5 3.9s-3.9 5.9-3.9 9.5c0 3.6 1.4 7 3.9 9.5 1.2 1.2 2.6 2.1 4.1 2.8l-5.5 5.5-28.7-28.4L50.5 22l8.2 8.2c.7.7 1.6.9 2.5.6.9-.3 1.5-1.1 1.6-2 .2-2 1.1-3.8 2.5-5.3 1.6-1.6 3.8-2.5 6.1-2.5s4.5.9 6.1 2.5c3.4 3.4 3.4 8.9 0 12.2z"/><metadata><rdf:RDF xmlns:rdf="http://www.w3.org/1999/02/22-rdf-syntax-ns#" xmlns:rdfs="http://www.w3.org/2000/01/rdf-schema#" xmlns:dc="http://purl.org/dc/elements/1.1/"><rdf:Description about="https://iconscout.com/legal#licenses" dc:title="puzzle" dc:description="puzzle" dc:publisher="Iconscout" dc:date="2017-11-15" dc:format="image/svg+xml" dc:language="en"><dc:creator><rdf:Bag><rdf:li>Lucía González</rdf:li></rdf:Bag></dc:creator></rdf:Description></rdf:RDF></metadata></svg>