<?xml version="1.0" encoding="UTF-8"?><svg xmlns="http://www.w3.org/2000/svg" xmlns:xlink="http://www.w3.org/1999/xlink" version="1.1" id="Layer_1" x="0px" y="0px" viewBox="0 0 101 101" xml:space="preserve"><path d="M82.2 26.2H63.8v-7.3c0-1.3-1.1-2.4-2.4-2.4H39.6c-1.3 0-2.4 1.1-2.4 2.4v7.3H18.8c-1.3 0-2.4 1.1-2.4 2.4 0 1.3 1.1 2.4 2.4 2.4h2.7l6.1 51.5c.1 1.2 1.2 2.1 2.4 2.1h41c1.2 0 2.2-.9 2.4-2.1L79.5 31h2.7c1.3 0 2.4-1.1 2.4-2.4 0-1.4-1.1-2.4-2.4-2.4zm-40.2-5h17v4.9H42v-4.9zm26.8 58.6H32.2L26.3 31h48.4l-5.9 48.8z"/><path d="M42.5 38.8c-1.3 0-2.4 1.1-2.4 2.4v28.9c0 1.3 1.1 2.4 2.4 2.4 1.3 0 2.4-1.1 2.4-2.4V41.2c0-1.3-1.1-2.4-2.4-2.4z"/><path d="M58.5 38.8c-1.3 0-2.4 1.1-2.4 2.4v28.9c0 1.3 1.1 2.4 2.4 2.4 1.3 0 2.4-1.1 2.4-2.4V41.2c0-1.3-1.1-2.4-2.4-2.4z"/><metadata><rdf:RDF xmlns:rdf="http://www.w3.org/1999/02/22-rdf-syntax-ns#" xmlns:rdfs="http://www.w3.org/2000/01/rdf-schema#" xmlns:dc="http://purl.org/dc/elements/1.1/"><rdf:Description about="https://iconscout.com/legal#licenses" dc:title="recyclebin,trash,recycle,waste" dc:description="recyclebin,trash,recycle,waste" dc:publisher="Iconscout" dc:date="2017-11-15" dc:format="image/svg+xml" dc:language="en"><dc:creator><rdf:Bag><rdf:li>Lucía González</rdf:li></rdf:Bag></dc:creator></rdf:Description></rdf:RDF></metadata></svg>