<?xml version="1.0" encoding="UTF-8"?><svg xmlns="http://www.w3.org/2000/svg" xmlns:xlink="http://www.w3.org/1999/xlink" version="1.1" id="Layer_1" x="0px" y="0px" viewBox="0 0 101 101" xml:space="preserve"><path d="M82.2 16.4c-1.3 0-2.4 1.1-2.4 2.4V33c-6-10.2-17.1-16.6-29.3-16.6-18.8 0-34.1 15.3-34.1 34.1s15.3 34.1 34.1 34.1 34.1-15.3 34.1-34.1c0-1.3-1.1-2.4-2.4-2.4s-2.4 1.1-2.4 2.4c0 16.1-13.1 29.3-29.3 29.3S21.2 66.6 21.2 50.5s13.1-29.3 29.3-29.3c11.6 0 21.9 6.8 26.6 17.1H60.3c-1.3 0-2.4 1.1-2.4 2.4s1.1 2.4 2.4 2.4h21.9c1.3 0 2.4-1.1 2.4-2.4V18.8c0-1.3-1.1-2.4-2.4-2.4z"/><metadata><rdf:RDF xmlns:rdf="http://www.w3.org/1999/02/22-rdf-syntax-ns#" xmlns:rdfs="http://www.w3.org/2000/01/rdf-schema#" xmlns:dc="http://purl.org/dc/elements/1.1/"><rdf:Description about="https://iconscout.com/legal#licenses" dc:title="reload,refresh" dc:description="reload,refresh" dc:publisher="Iconscout" dc:date="2017-11-15" dc:format="image/svg+xml" dc:language="en"><dc:creator><rdf:Bag><rdf:li>Lucía González</rdf:li></rdf:Bag></dc:creator></rdf:Description></rdf:RDF></metadata></svg>