<?xml version="1.0" encoding="UTF-8"?><svg xmlns="http://www.w3.org/2000/svg" xmlns:xlink="http://www.w3.org/1999/xlink" version="1.1" id="Layer_1" x="0px" y="0px" viewBox="0 0 101 101" xml:space="preserve"><path d="M60.8 31.9h-8.1V24c0-1.3-1.1-2.4-2.4-2.4s-2.4 1.1-2.4 2.4v7.9h-7.7c-13.1 0-23.8 10.7-23.8 23.8s10.7 23.8 23.8 23.8h20.6c13.1 0 23.8-10.7 23.8-23.8S73.9 31.9 60.8 31.9zm0 42.7H40.2c-10.5 0-19-8.5-19-19s8.5-19 19-19h20.6c10.5 0 19 8.5 19 19s-8.5 19-19 19z"/><path d="M39.6 53.3h-2.8v-2.8c0-1.3-1.1-2.4-2.4-2.4S32 49.2 32 50.5v2.8h-2.8c-1.3 0-2.4 1.1-2.4 2.4s1.1 2.4 2.4 2.4H32v2.8c0 1.3 1.1 2.4 2.4 2.4s2.4-1.1 2.4-2.4v-2.8h2.8c1.3 0 2.4-1.1 2.4-2.4s-1-2.4-2.4-2.4z"/><circle cx="62.3" cy="51.8" r="3.9"/><circle cx="70.1" cy="59.5" r="3.9"/><metadata><rdf:RDF xmlns:rdf="http://www.w3.org/1999/02/22-rdf-syntax-ns#" xmlns:rdfs="http://www.w3.org/2000/01/rdf-schema#" xmlns:dc="http://purl.org/dc/elements/1.1/"><rdf:Description about="https://iconscout.com/legal#licenses" dc:title="remote,controller,game" dc:description="remote,controller,game" dc:publisher="Iconscout" dc:date="2017-11-15" dc:format="image/svg+xml" dc:language="en"><dc:creator><rdf:Bag><rdf:li>Lucía González</rdf:li></rdf:Bag></dc:creator></rdf:Description></rdf:RDF></metadata></svg>