<?xml version="1.0" encoding="UTF-8"?><svg xmlns="http://www.w3.org/2000/svg" xmlns:xlink="http://www.w3.org/1999/xlink" version="1.1" id="Layer_1" x="0px" y="0px" viewBox="0 0 101 101" xml:space="preserve"><path d="M38.6 19c-4.8 0-8.6 4.9-8.6 11.2 0 5.2 2.6 9.4 6.2 10.7v38.8c0 1.3 1.1 2.4 2.4 2.4 1.3 0 2.4-1.1 2.4-2.4V40.9c3.6-1.3 6.2-5.6 6.2-10.7 0-6.3-3.8-11.2-8.6-11.2zm0 17.5c-1.8 0-3.8-2.6-3.8-6.4 0-3.8 2-6.4 3.8-6.4 1.8 0 3.8 2.6 3.8 6.4 0 3.8-2 6.4-3.8 6.4z"/><path d="M68.7 19c-1.3 0-2.4 1.1-2.4 2.4v15h-1.4v-15c0-1.3-1.1-2.4-2.4-2.4-1.4 0-2.5 1-2.5 2.4v15h-1.4v-15c0-1.3-1.1-2.4-2.4-2.4s-2.4 1.1-2.4 2.4v17.4c0 1.3 1.1 2.4 2.4 2.4H60v38.5c0 1.3 1.1 2.4 2.4 2.4 1.3 0 2.4-1.1 2.4-2.4V41.2h3.8c1.3 0 2.4-1.1 2.4-2.4V21.4c.1-1.4-1-2.4-2.3-2.4z"/><metadata><rdf:RDF xmlns:rdf="http://www.w3.org/1999/02/22-rdf-syntax-ns#" xmlns:rdfs="http://www.w3.org/2000/01/rdf-schema#" xmlns:dc="http://purl.org/dc/elements/1.1/"><rdf:Description about="https://iconscout.com/legal#licenses" dc:title="restaurant,fork,spoon,cutlery" dc:description="restaurant,fork,spoon,cutlery" dc:publisher="Iconscout" dc:date="2017-11-15" dc:format="image/svg+xml" dc:language="en"><dc:creator><rdf:Bag><rdf:li>Lucía González</rdf:li></rdf:Bag></dc:creator></rdf:Description></rdf:RDF></metadata></svg>