<?xml version="1.0" encoding="UTF-8"?><svg xmlns="http://www.w3.org/2000/svg" xmlns:xlink="http://www.w3.org/1999/xlink" version="1.1" id="Layer_1" x="0px" y="0px" viewBox="0 0 101 101" xml:space="preserve"><path d="M34.8 63.9c-5.7 0-10.3 4.6-10.3 10.3 0 5.7 4.6 10.3 10.3 10.3 5.5 0 10-4.3 10.3-9.8l5.3-12.6 5.4 12.5c.3 5.5 4.8 9.8 10.4 9.8 5.7 0 10.4-4.7 10.4-10.4s-4.7-10.4-10.4-10.4c-3.3 0-6.2 1.6-8.1 4l-5-11.7 15.4-36.3c.5-1.2-.1-2.6-1.3-3.1s-2.6.1-3.1 1.3l-13.6 32-13.8-31.9c-.5-1.2-1.9-1.8-3.2-1.3-1.2.5-1.8 1.9-1.3 3.2l15.5 36.3-5 11.7c-1.8-2.3-4.7-3.9-7.9-3.9zm31.3 4.7c3.1 0 5.6 2.5 5.6 5.6s-2.5 5.6-5.6 5.6-5.6-2.5-5.6-5.6 2.6-5.6 5.6-5.6zM34.8 79.8c-3 0-5.5-2.5-5.5-5.5s2.5-5.5 5.5-5.5 5.5 2.5 5.5 5.5-2.5 5.5-5.5 5.5z"/><metadata><rdf:RDF xmlns:rdf="http://www.w3.org/1999/02/22-rdf-syntax-ns#" xmlns:rdfs="http://www.w3.org/2000/01/rdf-schema#" xmlns:dc="http://purl.org/dc/elements/1.1/"><rdf:Description about="https://iconscout.com/legal#licenses" dc:title="scissor" dc:description="scissor" dc:publisher="Iconscout" dc:date="2017-11-15" dc:format="image/svg+xml" dc:language="en"><dc:creator><rdf:Bag><rdf:li>Lucía González</rdf:li></rdf:Bag></dc:creator></rdf:Description></rdf:RDF></metadata></svg>