<?xml version="1.0" encoding="UTF-8"?><svg xmlns="http://www.w3.org/2000/svg" xmlns:xlink="http://www.w3.org/1999/xlink" version="1.1" id="Layer_1" x="0px" y="0px" viewBox="0 0 101 101" xml:space="preserve"><path d="M82.2 48H70c-1.1-3.5-4.4-6.1-8.3-6.1-3.9 0-7.2 2.6-8.3 6.1H18.8c-1.3 0-2.4 1.1-2.4 2.4s1.1 2.4 2.4 2.4h34.6c1 3.6 4.4 6.3 8.3 6.3 4 0 7.3-2.7 8.3-6.3h12.2c1.3 0 2.4-1.1 2.4-2.4S83.5 48 82.2 48zm-20.5 6.3c-2.1 0-3.8-1.7-3.8-3.8s1.7-3.8 3.8-3.8c2.1 0 3.8 1.7 3.8 3.8s-1.7 3.8-3.8 3.8z"/><metadata><rdf:RDF xmlns:rdf="http://www.w3.org/1999/02/22-rdf-syntax-ns#" xmlns:rdfs="http://www.w3.org/2000/01/rdf-schema#" xmlns:dc="http://purl.org/dc/elements/1.1/"><rdf:Description about="https://iconscout.com/legal#licenses" dc:title="setting,slider" dc:description="setting,slider" dc:publisher="Iconscout" dc:date="2017-11-15" dc:format="image/svg+xml" dc:language="en"><dc:creator><rdf:Bag><rdf:li>Lucía González</rdf:li></rdf:Bag></dc:creator></rdf:Description></rdf:RDF></metadata></svg>