<?xml version="1.0" encoding="UTF-8"?><svg xmlns="http://www.w3.org/2000/svg" xmlns:xlink="http://www.w3.org/1999/xlink" version="1.1" id="Layer_1" x="0px" y="0px" viewBox="0 0 101 101" xml:space="preserve"><path d="M38 59.6c1.6 0 3.2-.4 4.5-1.2L55 70.9c-.8 1.3-1.2 2.9-1.2 4.5 0 5 4.1 9.1 9.1 9.1s9.1-4.1 9.1-9.1-4.1-9.1-9.1-9.1c-1.6 0-3.2.4-4.5 1.2L45.9 55c.8-1.3 1.2-2.9 1.2-4.5s-.4-3.2-1.2-4.5l12.5-12.5c1.3.8 2.9 1.2 4.5 1.2 5 0 9.1-4.1 9.1-9.1s-4-9.2-9-9.2-9.1 4.1-9.1 9.1c0 1.6.4 3.2 1.2 4.5L42.5 42.6c-1.3-.8-2.9-1.2-4.5-1.2-5 0-9.1 4.1-9.1 9.1s4.1 9.1 9.1 9.1zm29.3 15.9c0 2.4-1.9 4.3-4.3 4.3s-4.3-1.9-4.3-4.3 1.9-4.3 4.3-4.3c2.4-.1 4.3 1.9 4.3 4.3zM63 21.2c2.4 0 4.3 1.9 4.3 4.3s-1.9 4.3-4.3 4.3-4.3-1.9-4.3-4.3 1.9-4.3 4.3-4.3zm-25 25c2.4 0 4.3 1.9 4.3 4.3s-1.9 4.3-4.3 4.3-4.3-1.9-4.3-4.3 1.9-4.3 4.3-4.3z"/><metadata><rdf:RDF xmlns:rdf="http://www.w3.org/1999/02/22-rdf-syntax-ns#" xmlns:rdfs="http://www.w3.org/2000/01/rdf-schema#" xmlns:dc="http://purl.org/dc/elements/1.1/"><rdf:Description about="https://iconscout.com/legal#licenses" dc:title="share,bluetooth" dc:description="share,bluetooth" dc:publisher="Iconscout" dc:date="2017-11-15" dc:format="image/svg+xml" dc:language="en"><dc:creator><rdf:Bag><rdf:li>Lucía González</rdf:li></rdf:Bag></dc:creator></rdf:Description></rdf:RDF></metadata></svg>