<?xml version="1.0" encoding="UTF-8"?><svg xmlns="http://www.w3.org/2000/svg" xmlns:xlink="http://www.w3.org/1999/xlink" version="1.1" id="Layer_1" x="0px" y="0px" viewBox="0 0 101 101" xml:space="preserve"><path d="M82.2 32.4c-.1 0-14.8-.4-29.9-15.3-.4-.4-1.1-.7-1.7-.7h-.2c-.6 0-1.2.2-1.7.7C33.7 32 19 32.4 18.8 32.4c-1.3 0-2.4 1.1-2.4 2.4v15.6c0 .3.1.6.2.9.4 1.1 10.6 26.2 33.1 33.3.2.1.5.1.7.1h.2c.2 0 .5 0 .7-.1 22.4-7 32.6-32.2 33.1-33.3.1-.3.2-.6.2-.9V34.8c0-1.4-1.1-2.4-2.4-2.4zm-2.4 17.5C78.4 53 68.9 73.6 50.5 79.7 32.1 73.6 22.6 53 21.2 49.9V37c4.9-.6 16.8-3.4 29.3-15 12.4 11.6 24.3 14.3 29.3 15v12.9z"/><metadata><rdf:RDF xmlns:rdf="http://www.w3.org/1999/02/22-rdf-syntax-ns#" xmlns:rdfs="http://www.w3.org/2000/01/rdf-schema#" xmlns:dc="http://purl.org/dc/elements/1.1/"><rdf:Description about="https://iconscout.com/legal#licenses" dc:title="shield,safety,security" dc:description="shield,safety,security" dc:publisher="Iconscout" dc:date="2017-11-15" dc:format="image/svg+xml" dc:language="en"><dc:creator><rdf:Bag><rdf:li>Lucía González</rdf:li></rdf:Bag></dc:creator></rdf:Description></rdf:RDF></metadata></svg>