<?xml version="1.0" encoding="UTF-8"?><svg xmlns="http://www.w3.org/2000/svg" xmlns:xlink="http://www.w3.org/1999/xlink" version="1.1" id="Layer_1" x="0px" y="0px" viewBox="0 0 101 101" xml:space="preserve"><path d="M67.5 16.7c-.8-.4-1.7-.4-2.5.1L37 35.4v-.8c0-1.3-1.1-2.4-2.4-2.4H18.8c-1.3 0-2.4 1.1-2.4 2.4v31.7c0 1.3 1.1 2.4 2.4 2.4h15.8c1.3 0 2.4-1.1 2.4-2.4v-.8l28 18.6c.4.3.9.4 1.3.4s.8-.1 1.1-.3c.8-.4 1.3-1.2 1.3-2.1V18.8c.1-.9-.4-1.7-1.2-2.1zM32.3 63.9h-11V37.1h11v26.8zM64 77.7L37.1 59.8V41.2L64 23.3v54.4z"/><path d="M82.2 32.3c-1.3 0-2.4 1.1-2.4 2.4v31.7c0 1.3 1.1 2.4 2.4 2.4s2.4-1.1 2.4-2.4V34.7c0-1.4-1.1-2.4-2.4-2.4z"/><metadata><rdf:RDF xmlns:rdf="http://www.w3.org/1999/02/22-rdf-syntax-ns#" xmlns:rdfs="http://www.w3.org/2000/01/rdf-schema#" xmlns:dc="http://purl.org/dc/elements/1.1/"><rdf:Description about="https://iconscout.com/legal#licenses" dc:title="sound,speaker,audio" dc:description="sound,speaker,audio" dc:publisher="Iconscout" dc:date="2017-11-15" dc:format="image/svg+xml" dc:language="en"><dc:creator><rdf:Bag><rdf:li>Lucía González</rdf:li></rdf:Bag></dc:creator></rdf:Description></rdf:RDF></metadata></svg>