<?xml version="1.0" encoding="UTF-8"?><svg xmlns="http://www.w3.org/2000/svg" xmlns:xlink="http://www.w3.org/1999/xlink" version="1.1" id="Layer_1" x="0px" y="0px" viewBox="0 0 101 101" xml:space="preserve"><path d="M71.3 74.9c1.3 0 2.4-1.1 2.4-2.4v-4.9c0-4.8-2-9.3-5.4-12.6.2-1.5.4-3 .4-4.5 0-16.6-15.9-32.7-16.5-33.4-.5-.5-1.1-.7-1.7-.7-.6 0-1.3.3-1.7.7-.7.7-16.4 16.8-16.4 33.4 0 1.4.1 2.9.4 4.4-3.5 3.3-5.5 7.8-5.5 12.7v4.9c0 1.3 1.1 2.4 2.4 2.4s2.4-1.1 2.4-2.4v-4.9c0-2.5.7-4.9 2.1-7 .7 2.2 1.7 4.4 2.8 6.7.4.8 1.2 1.3 2.1 1.3h9v3.8c0 1.3 1.1 2.4 2.4 2.4s2.4-1.1 2.4-2.4v-3.8H62c.9 0 1.7-.5 2.1-1.3 1.2-2.2 2.1-4.5 2.8-6.6 1.3 2 2 4.4 2 6.8v4.9c0 1.4 1.1 2.5 2.4 2.5zM60.5 63.8h-7.6V60c0-1.3-1.1-2.4-2.4-2.4s-2.4 1.1-2.4 2.4v3.8h-7.5c-1.4-2.9-2.3-5.6-2.9-8.3 0-.2-.1-.4-.1-.5-.3-1.6-.5-3.1-.5-4.6 0-11.6 9.4-23.6 13.3-28.1 4 4.5 13.4 16.5 13.4 28.1.1 4.1-1 8.6-3.3 13.4z"/><path d="M50.6 35.1c-4.8 0-8.6 3.9-8.6 8.6s3.9 8.6 8.6 8.6 8.6-3.9 8.6-8.6-3.8-8.6-8.6-8.6zm0 12.5c-2.1 0-3.8-1.7-3.8-3.8s1.7-3.8 3.8-3.8 3.8 1.7 3.8 3.8-1.7 3.8-3.8 3.8z"/><path d="M39.6 82.2v-8c0-1.3-1.1-2.4-2.4-2.4s-2.4 1.1-2.4 2.4v8c0 1.3 1.1 2.4 2.4 2.4s2.4-1.1 2.4-2.4z"/><path d="M66.2 82.2v-8c0-1.3-1.1-2.4-2.4-2.4s-2.4 1.1-2.4 2.4v8c0 1.3 1.1 2.4 2.4 2.4s2.4-1.1 2.4-2.4z"/><metadata><rdf:RDF xmlns:rdf="http://www.w3.org/1999/02/22-rdf-syntax-ns#" xmlns:rdfs="http://www.w3.org/2000/01/rdf-schema#" xmlns:dc="http://purl.org/dc/elements/1.1/"><rdf:Description about="https://iconscout.com/legal#licenses" dc:title="startup,boost,launch" dc:description="startup,boost,launch" dc:publisher="Iconscout" dc:date="2017-11-15" dc:format="image/svg+xml" dc:language="en"><dc:creator><rdf:Bag><rdf:li>Lucía González</rdf:li></rdf:Bag></dc:creator></rdf:Description></rdf:RDF></metadata></svg>