<?xml version="1.0" encoding="UTF-8"?><svg xmlns="http://www.w3.org/2000/svg" xmlns:xlink="http://www.w3.org/1999/xlink" version="1.1" id="Layer_1" x="0px" y="0px" viewBox="0 0 101 101" xml:space="preserve"><path d="M49.4 18c-.5-.5-1.2-.8-2-.7l-25.2 2.9c-1.1.1-2 1-2.1 2.1l-2.9 25.2c-.1.7.2 1.5.7 2L51.6 83c.5.5 1.1.7 1.7.7s1.2-.2 1.7-.7l28-28c.4-.5.7-1.1.7-1.7s-.2-1.3-.7-1.7L49.4 18zm-24.7 6.7l22.1-2.5 22.9 22.9-24.6 24.6-22.9-22.9 2.5-22.1zM53.3 78l-4.8-4.8 24.7-24.7 4.8 4.8L53.3 78z"/><path d="M47.6 38.4c0-2.4-.9-4.7-2.7-6.4-1.7-1.7-4-2.7-6.4-2.7-2.4 0-4.7.9-6.4 2.7-3.6 3.6-3.6 9.3 0 12.9 1.7 1.7 4 2.7 6.4 2.7 2.4 0 4.7-.9 6.4-2.7 1.7-1.7 2.7-4 2.7-6.5zm-6.1 3.1c-1.6 1.6-4.5 1.6-6.1 0-1.7-1.7-1.7-4.4 0-6.1.8-.8 1.9-1.3 3.1-1.3 1.2 0 2.2.4 3.1 1.3.8.8 1.3 1.9 1.3 3.1-.1 1.1-.6 2.2-1.4 3z"/><metadata><rdf:RDF xmlns:rdf="http://www.w3.org/1999/02/22-rdf-syntax-ns#" xmlns:rdfs="http://www.w3.org/2000/01/rdf-schema#" xmlns:dc="http://purl.org/dc/elements/1.1/"><rdf:Description about="https://iconscout.com/legal#licenses" dc:title="tag,label" dc:description="tag,label" dc:publisher="Iconscout" dc:date="2017-11-15" dc:format="image/svg+xml" dc:language="en"><dc:creator><rdf:Bag><rdf:li>Lucía González</rdf:li></rdf:Bag></dc:creator></rdf:Description></rdf:RDF></metadata></svg>