<?xml version="1.0" encoding="UTF-8"?><svg xmlns="http://www.w3.org/2000/svg" xmlns:xlink="http://www.w3.org/1999/xlink" version="1.1" id="Layer_1" x="0px" y="0px" viewBox="0 0 101 101" xml:space="preserve"><path d="M82.2 48.1h-5.3c-1.1-12.7-11.3-22.8-24-24v-5.3c0-1.3-1.1-2.4-2.4-2.4s-2.4 1.1-2.4 2.4v5.3c-12.7 1.1-22.8 11.3-24 24h-5.3c-1.3 0-2.4 1.1-2.4 2.4s1.1 2.4 2.4 2.4h5.3c1.1 12.7 11.3 22.8 24 24v5.3c0 1.3 1.1 2.4 2.4 2.4s2.4-1.1 2.4-2.4v-5.3c12.7-1.1 22.8-11.3 24-24h5.3c1.3 0 2.4-1.1 2.4-2.4s-1.1-2.4-2.4-2.4zm-19.9 4.8H72C71 63 63 71 52.9 72.1v-9.7c0-1.3-1.1-2.4-2.4-2.4s-2.4 1.1-2.4 2.4v9.7C38 71 30 63 28.9 52.9h9.7c1.3 0 2.4-1.1 2.4-2.4s-1.1-2.4-2.4-2.4h-9.7C30 38 38 30 48.1 28.9v9.7c0 1.3 1.1 2.4 2.4 2.4s2.4-1.1 2.4-2.4v-9.7C63 30 71 38 72.1 48.1h-9.7c-1.3 0-2.4 1.1-2.4 2.4s1 2.4 2.3 2.4z"/><metadata><rdf:RDF xmlns:rdf="http://www.w3.org/1999/02/22-rdf-syntax-ns#" xmlns:rdfs="http://www.w3.org/2000/01/rdf-schema#" xmlns:dc="http://purl.org/dc/elements/1.1/"><rdf:Description about="https://iconscout.com/legal#licenses" dc:title="target" dc:description="target" dc:publisher="Iconscout" dc:date="2017-11-15" dc:format="image/svg+xml" dc:language="en"><dc:creator><rdf:Bag><rdf:li>Lucía González</rdf:li></rdf:Bag></dc:creator></rdf:Description></rdf:RDF></metadata></svg>