<?xml version="1.0" encoding="UTF-8"?><svg xmlns="http://www.w3.org/2000/svg" xmlns:xlink="http://www.w3.org/1999/xlink" version="1.1" id="Layer_1" x="0px" y="0px" viewBox="0 0 101 101" xml:space="preserve"><path d="M77.7 59.2h-2.2l-7.1-37.9h5.7c1.3 0 2.4-1.1 2.4-2.4s-1.1-2.4-2.4-2.4H26.9c-1.3 0-2.4 1.1-2.4 2.4s1.1 2.4 2.4 2.4h5.7l-7.1 37.9h-2.2c-1.3 0-2.4 1.1-2.4 2.4 0 1.3 1.1 2.4 2.4 2.4h24.8v18.2c0 1.3 1.1 2.4 2.4 2.4s2.4-1.1 2.4-2.4V64H77.6c1.3 0 2.4-1.1 2.4-2.4.1-1.4-1-2.4-2.3-2.4zm-47.3 0l7.1-37.9h26.1l7.1 37.9H30.4z"/><metadata><rdf:RDF xmlns:rdf="http://www.w3.org/1999/02/22-rdf-syntax-ns#" xmlns:rdfs="http://www.w3.org/2000/01/rdf-schema#" xmlns:dc="http://purl.org/dc/elements/1.1/"><rdf:Description about="https://iconscout.com/legal#licenses" dc:title="thumb-pin,pin,attach" dc:description="thumb-pin,pin,attach" dc:publisher="Iconscout" dc:date="2017-11-15" dc:format="image/svg+xml" dc:language="en"><dc:creator><rdf:Bag><rdf:li>Lucía González</rdf:li></rdf:Bag></dc:creator></rdf:Description></rdf:RDF></metadata></svg>