<?xml version="1.0" encoding="UTF-8"?><svg xmlns="http://www.w3.org/2000/svg" xmlns:xlink="http://www.w3.org/1999/xlink" version="1.1" id="Layer_1" x="0px" y="0px" viewBox="0 0 101 101" xml:space="preserve"><path d="M66.3 32.3H34.7c-10.1 0-18.2 8.2-18.2 18.2s8.2 18.2 18.2 18.2h31.7c10.1 0 18.2-8.2 18.2-18.2s-8.2-18.2-18.3-18.2zm0 31.6H34.7c-7.4 0-13.4-6-13.4-13.4s6-13.4 13.4-13.4h31.7c7.4 0 13.4 6 13.4 13.4s-6 13.4-13.5 13.4z"/><path d="M34.7 40.3c-5.6 0-10.2 4.6-10.2 10.2s4.6 10.2 10.2 10.2 10.2-4.6 10.2-10.2c-.1-5.6-4.6-10.2-10.2-10.2zm0 15.6c-3 0-5.4-2.4-5.4-5.4 0-3 2.4-5.4 5.4-5.4 3 0 5.4 2.4 5.4 5.4-.1 3-2.5 5.4-5.4 5.4z"/><metadata><rdf:RDF xmlns:rdf="http://www.w3.org/1999/02/22-rdf-syntax-ns#" xmlns:rdfs="http://www.w3.org/2000/01/rdf-schema#" xmlns:dc="http://purl.org/dc/elements/1.1/"><rdf:Description about="https://iconscout.com/legal#licenses" dc:title="toggle,slide" dc:description="toggle,slide" dc:publisher="Iconscout" dc:date="2017-11-15" dc:format="image/svg+xml" dc:language="en"><dc:creator><rdf:Bag><rdf:li>Lucía González</rdf:li></rdf:Bag></dc:creator></rdf:Description></rdf:RDF></metadata></svg>