<?xml version="1.0" encoding="UTF-8"?><svg xmlns="http://www.w3.org/2000/svg" xmlns:xlink="http://www.w3.org/1999/xlink" version="1.1" id="Layer_1" x="0px" y="0px" viewBox="0 0 101 101" xml:space="preserve"><path d="M72.1 52.9H31.3V40.1c0-10.4 8.5-18.9 18.9-18.9s18.9 8.5 18.9 18.9c0 1.3 1.1 2.4 2.4 2.4 1.3 0 2.4-1.1 2.4-2.4 0-13.1-10.6-23.7-23.7-23.7S26.5 27.1 26.5 40.1V82.2c0 1.3 1.1 2.4 2.4 2.4H72c1.3 0 2.4-1.1 2.4-2.4V55.3c.1-1.3-1-2.4-2.3-2.4zm-2.4 26.9H31.3V57.7h38.3v22.1z"/><circle cx="50.6" cy="68.7" r="3.9"/><metadata><rdf:RDF xmlns:rdf="http://www.w3.org/1999/02/22-rdf-syntax-ns#" xmlns:rdfs="http://www.w3.org/2000/01/rdf-schema#" xmlns:dc="http://purl.org/dc/elements/1.1/"><rdf:Description about="https://iconscout.com/legal#licenses" dc:title="unlock" dc:description="unlock" dc:publisher="Iconscout" dc:date="2017-11-15" dc:format="image/svg+xml" dc:language="en"><dc:creator><rdf:Bag><rdf:li>Lucía González</rdf:li></rdf:Bag></dc:creator></rdf:Description></rdf:RDF></metadata></svg>