<?xml version="1.0" encoding="UTF-8"?><svg xmlns="http://www.w3.org/2000/svg" xmlns:xlink="http://www.w3.org/1999/xlink" version="1.1" id="Layer_1" x="0px" y="0px" viewBox="0 0 101 101" xml:space="preserve"><path d="M18.8 84.6h63.4c1.3 0 2.4-1.1 2.4-2.4V28.4c0-1.3-1.1-2.4-2.4-2.4-1.3 0-2.4 1.1-2.4 2.4v51.4H21.2V21.2h51.4c1.3 0 2.4-1.1 2.4-2.4s-1.1-2.4-2.4-2.4H18.8c-1.3 0-2.4 1.1-2.4 2.4v63.4c0 1.3 1.1 2.4 2.4 2.4z"/><path d="M80.5 17.1L48.8 48.8c-.9.9-.9 2.5 0 3.4.5.5 1.1.7 1.7.7s1.2-.2 1.7-.7l31.7-31.7c.9-.9.9-2.5 0-3.4s-2.5-.9-3.4 0z"/><metadata><rdf:RDF xmlns:rdf="http://www.w3.org/1999/02/22-rdf-syntax-ns#" xmlns:rdfs="http://www.w3.org/2000/01/rdf-schema#" xmlns:dc="http://purl.org/dc/elements/1.1/"><rdf:Description about="https://iconscout.com/legal#licenses" dc:title="upload" dc:description="upload" dc:publisher="Iconscout" dc:date="2017-11-15" dc:format="image/svg+xml" dc:language="en"><dc:creator><rdf:Bag><rdf:li>Lucía González</rdf:li></rdf:Bag></dc:creator></rdf:Description></rdf:RDF></metadata></svg>