<?xml version="1.0" encoding="UTF-8"?><svg xmlns="http://www.w3.org/2000/svg" xmlns:xlink="http://www.w3.org/1999/xlink" version="1.1" id="Layer_1" x="0px" y="0px" viewBox="0 0 101 101" xml:space="preserve"><path d="M79 28.3c.6-1.2.2-2.6-.9-3.3-8.4-4.7-17.9-7.1-27.5-7.1-9.7 0-19.2 2.5-27.6 7.2-1.2.6-1.6 2.1-.9 3.3.4.8 1.3 1.2 2.1 1.2.4 0 .8-.1 1.2-.3 7.7-4.3 16.4-6.6 25.2-6.6s17.5 2.3 25.2 6.5c1 .6 2.5.2 3.2-.9z"/><path d="M69.4 43.6c.8 0 1.6-.4 2.1-1.2.7-1.2.3-2.6-.9-3.3-6.1-3.5-13-5.3-20-5.3s-13.9 1.8-20 5.2c-1.2.7-1.6 2.1-.9 3.3.7 1.2 2.1 1.6 3.3.9 5.3-3 11.4-4.6 17.6-4.6 6.2 0 12.3 1.6 17.7 4.7.3.2.7.3 1.1.3z"/><path d="M63.4 56.2c.6-1.2.2-2.6-.9-3.3-7.4-4.1-16.9-4-24.2.2-1.1.7-1.5 2.1-.9 3.3.4.8 1.3 1.2 2.1 1.2.4 0 .8-.1 1.2-.3 5.9-3.4 13.5-3.5 19.5-.2 1.1.7 2.5.3 3.2-.9z"/><path d="M41.9 74.5c0 4.8 3.9 8.6 8.6 8.6s8.6-3.9 8.6-8.6c0-4.8-3.9-8.6-8.6-8.6s-8.6 3.8-8.6 8.6zm12.5 0c0 2.1-1.7 3.8-3.8 3.8s-3.8-1.7-3.8-3.8 1.7-3.8 3.8-3.8 3.8 1.7 3.8 3.8z"/><metadata><rdf:RDF xmlns:rdf="http://www.w3.org/1999/02/22-rdf-syntax-ns#" xmlns:rdfs="http://www.w3.org/2000/01/rdf-schema#" xmlns:dc="http://purl.org/dc/elements/1.1/"><rdf:Description about="https://iconscout.com/legal#licenses" dc:title="wifi,signal,wireless,network" dc:description="wifi,signal,wireless,network" dc:publisher="Iconscout" dc:date="2017-11-15" dc:format="image/svg+xml" dc:language="en"><dc:creator><rdf:Bag><rdf:li>Lucía González</rdf:li></rdf:Bag></dc:creator></rdf:Description></rdf:RDF></metadata></svg>