<?xml version="1.0" encoding="UTF-8"?><svg xmlns="http://www.w3.org/2000/svg" xmlns:xlink="http://www.w3.org/1999/xlink" version="1.1" id="Layer_1" x="0px" y="0px" viewBox="0 0 101 101" xml:space="preserve"><path d="M77 50.5c0-5.3-1.6-10.2-4.3-14.4V18.8c0-1.3-1.1-2.4-2.4-2.4H30.7c-1.3 0-2.4 1.1-2.4 2.4v17.3c-2.7 4.1-4.3 9.1-4.3 14.4 0 5.3 1.6 10.2 4.3 14.4v17.3c0 1.3 1.1 2.4 2.4 2.4h39.7c1.3 0 2.4-1.1 2.4-2.4V64.9c2.6-4.2 4.2-9.1 4.2-14.4zm-48.2 0c0-12 9.7-21.7 21.7-21.7s21.7 9.7 21.7 21.7-9.7 21.7-21.7 21.7-21.7-9.7-21.7-21.7zm39.1-29.3v9.4C63.3 26.5 57.2 24 50.5 24c-6.7 0-12.8 2.5-17.4 6.6v-9.4h34.8zM33.1 79.8v-9.4c4.7 4.1 10.8 6.6 17.4 6.6 6.7 0 12.8-2.5 17.4-6.6v9.4H33.1z"/><path d="M50.5 52.9h8.6c1.3 0 2.4-1.1 2.4-2.4 0-1.3-1.1-2.4-2.4-2.4h-6.2V38c0-1.3-1.1-2.4-2.4-2.4-1.3 0-2.4 1.1-2.4 2.4v12.5c0 1.3 1.1 2.4 2.4 2.4z"/><metadata><rdf:RDF xmlns:rdf="http://www.w3.org/1999/02/22-rdf-syntax-ns#" xmlns:rdfs="http://www.w3.org/2000/01/rdf-schema#" xmlns:dc="http://purl.org/dc/elements/1.1/"><rdf:Description about="https://iconscout.com/legal#licenses" dc:title="wristwatch,watch,hand-watch,time" dc:description="wristwatch,watch,hand-watch,time" dc:publisher="Iconscout" dc:date="2017-11-15" dc:format="image/svg+xml" dc:language="en"><dc:creator><rdf:Bag><rdf:li>Lucía González</rdf:li></rdf:Bag></dc:creator></rdf:Description></rdf:RDF></metadata></svg>