<?xml version="1.0" encoding="UTF-8"?><svg xmlns="http://www.w3.org/2000/svg" xmlns:xlink="http://www.w3.org/1999/xlink" version="1.1" id="Layer_1" x="0px" y="0px" viewBox="0 0 101 101" xml:space="preserve"><path d="M42.9 69.4c6.4 0 12.4-2.3 17-6.2l20.6 20.6c.5.5 1.1.7 1.7.7.6 0 1.2-.2 1.7-.7.9-.9.9-2.5 0-3.4L63.3 59.9c3.8-4.6 6.2-10.5 6.2-17 0-14.6-11.9-26.5-26.5-26.5S16.5 28.3 16.5 42.9c-.1 14.6 11.8 26.5 26.4 26.5zm0-48.2c12 0 21.7 9.7 21.7 21.7s-9.7 21.7-21.7 21.7-21.7-9.7-21.7-21.7c0-11.9 9.8-21.7 21.7-21.7z"/><path d="M61 42.9c0-1.3-1.1-2.4-2.4-2.4H27.2c-1.3 0-2.4 1.1-2.4 2.4s1.1 2.4 2.4 2.4h31.4c1.3 0 2.4-1 2.4-2.4z"/><metadata><rdf:RDF xmlns:rdf="http://www.w3.org/1999/02/22-rdf-syntax-ns#" xmlns:rdfs="http://www.w3.org/2000/01/rdf-schema#" xmlns:dc="http://purl.org/dc/elements/1.1/"><rdf:Description about="https://iconscout.com/legal#licenses" dc:title="zoomout,zoom,search" dc:description="zoomout,zoom,search" dc:publisher="Iconscout" dc:date="2017-11-15" dc:format="image/svg+xml" dc:language="en"><dc:creator><rdf:Bag><rdf:li>Lucía González</rdf:li></rdf:Bag></dc:creator></rdf:Description></rdf:RDF></metadata></svg>